<mxfile host="app.diagrams.net" modified="2021-04-29T11:02:20.334Z" agent="5.0 (Windows NT 10.0; Win64; x64) AppleWebKit/537.36 (KHTML, like Gecko) Chrome/90.0.4430.93 Safari/537.36" etag="lmq8uxXnWp7ktkSs7tbD" version="14.6.6" type="github" pages="6">
  <diagram id="dg4YkTxZD1hSXGOhYrKW" name="toc">
    <mxGraphModel dx="1422" dy="762" grid="1" gridSize="10" guides="1" tooltips="1" connect="1" arrows="1" fold="1" page="1" pageScale="1" pageWidth="850" pageHeight="1100" math="0" shadow="0">
      <root>
        <mxCell id="KRRu6SAy1QjtI0LFohUm-0" />
        <mxCell id="KRRu6SAy1QjtI0LFohUm-1" parent="KRRu6SAy1QjtI0LFohUm-0" />
        <mxCell id="KRRu6SAy1QjtI0LFohUm-2" value="Parameters&amp;nbsp;" style="shape=table;html=1;whiteSpace=wrap;startSize=30;container=1;collapsible=0;childLayout=tableLayout;fontStyle=1;align=center;" parent="KRRu6SAy1QjtI0LFohUm-1" vertex="1">
          <mxGeometry x="70" y="60" width="550" height="455" as="geometry" />
        </mxCell>
        <mxCell id="cISerDiGYAjY79jF5-bJ-0" style="shape=partialRectangle;html=1;whiteSpace=wrap;collapsible=0;dropTarget=0;pointerEvents=0;fillColor=none;top=0;left=0;bottom=0;right=0;points=[[0,0.5],[1,0.5]];portConstraint=eastwest;" parent="KRRu6SAy1QjtI0LFohUm-2" vertex="1">
          <mxGeometry y="30" width="550" height="53" as="geometry" />
        </mxCell>
        <mxCell id="cISerDiGYAjY79jF5-bJ-1" value="Tab name" style="shape=partialRectangle;html=1;whiteSpace=wrap;connectable=0;fillColor=none;top=0;left=0;bottom=0;right=0;overflow=hidden;" parent="cISerDiGYAjY79jF5-bJ-0" vertex="1">
          <mxGeometry width="183" height="53" as="geometry" />
        </mxCell>
        <mxCell id="cISerDiGYAjY79jF5-bJ-2" value="Page ID (always unique)&lt;br&gt;obtained for each tab under Edit&amp;gt;Edit data" style="shape=partialRectangle;html=1;whiteSpace=wrap;connectable=0;fillColor=none;top=0;left=0;bottom=0;right=0;overflow=hidden;" parent="cISerDiGYAjY79jF5-bJ-0" vertex="1">
          <mxGeometry x="183" width="184" height="53" as="geometry" />
        </mxCell>
        <mxCell id="cISerDiGYAjY79jF5-bJ-3" value="Page ; dependent on position of tab" style="shape=partialRectangle;html=1;whiteSpace=wrap;connectable=0;fillColor=none;top=0;left=0;bottom=0;right=0;overflow=hidden;" parent="cISerDiGYAjY79jF5-bJ-0" vertex="1">
          <mxGeometry x="367" width="183" height="53" as="geometry" />
        </mxCell>
        <mxCell id="KRRu6SAy1QjtI0LFohUm-3" value="" style="shape=partialRectangle;html=1;whiteSpace=wrap;collapsible=0;dropTarget=0;pointerEvents=0;fillColor=none;top=0;left=0;bottom=0;right=0;points=[[0,0.5],[1,0.5]];portConstraint=eastwest;" parent="KRRu6SAy1QjtI0LFohUm-2" vertex="1">
          <mxGeometry y="83" width="550" height="53" as="geometry" />
        </mxCell>
        <mxCell id="KRRu6SAy1QjtI0LFohUm-4" value="" style="shape=partialRectangle;html=1;whiteSpace=wrap;connectable=0;fillColor=none;top=0;left=0;bottom=0;right=0;overflow=hidden;" parent="KRRu6SAy1QjtI0LFohUm-3" vertex="1">
          <mxGeometry width="183" height="53" as="geometry" />
        </mxCell>
        <mxCell id="KRRu6SAy1QjtI0LFohUm-5" value="&lt;span style=&quot;font-family: &amp;#34;helvetica&amp;#34; , &amp;#34;arial&amp;#34; , sans-serif ; font-size: 11px ; background-color: rgb(255 , 255 , 255)&quot;&gt;dg4YkTxZD1hSXGOhYrKW&lt;/span&gt;" style="shape=partialRectangle;html=1;whiteSpace=wrap;connectable=0;fillColor=none;top=0;left=0;bottom=0;right=0;overflow=hidden;" parent="KRRu6SAy1QjtI0LFohUm-3" vertex="1">
          <mxGeometry x="183" width="184" height="53" as="geometry" />
        </mxCell>
        <mxCell id="KRRu6SAy1QjtI0LFohUm-6" value="" style="shape=partialRectangle;html=1;whiteSpace=wrap;connectable=0;fillColor=none;top=0;left=0;bottom=0;right=0;overflow=hidden;" parent="KRRu6SAy1QjtI0LFohUm-3" vertex="1">
          <mxGeometry x="367" width="183" height="53" as="geometry" />
        </mxCell>
        <mxCell id="KRRu6SAy1QjtI0LFohUm-7" value="" style="shape=partialRectangle;html=1;whiteSpace=wrap;collapsible=0;dropTarget=0;pointerEvents=0;fillColor=none;top=0;left=0;bottom=0;right=0;points=[[0,0.5],[1,0.5]];portConstraint=eastwest;" parent="KRRu6SAy1QjtI0LFohUm-2" vertex="1">
          <mxGeometry y="136" width="550" height="54" as="geometry" />
        </mxCell>
        <mxCell id="KRRu6SAy1QjtI0LFohUm-8" value="L0" style="shape=partialRectangle;html=1;whiteSpace=wrap;connectable=0;fillColor=none;top=0;left=0;bottom=0;right=0;overflow=hidden;" parent="KRRu6SAy1QjtI0LFohUm-7" vertex="1">
          <mxGeometry width="183" height="54" as="geometry" />
        </mxCell>
        <mxCell id="KRRu6SAy1QjtI0LFohUm-9" value="&lt;span style=&quot;font-family: &amp;#34;helvetica&amp;#34; , &amp;#34;arial&amp;#34; , sans-serif ; font-size: 11px ; background-color: rgb(255 , 255 , 255)&quot;&gt;PcnxFXX_CNwZoeUF3vSi&lt;/span&gt;" style="shape=partialRectangle;html=1;whiteSpace=wrap;connectable=0;fillColor=none;top=0;left=0;bottom=0;right=0;overflow=hidden;" parent="KRRu6SAy1QjtI0LFohUm-7" vertex="1">
          <mxGeometry x="183" width="184" height="54" as="geometry" />
        </mxCell>
        <mxCell id="KRRu6SAy1QjtI0LFohUm-10" value="1" style="shape=partialRectangle;html=1;whiteSpace=wrap;connectable=0;fillColor=none;top=0;left=0;bottom=0;right=0;overflow=hidden;" parent="KRRu6SAy1QjtI0LFohUm-7" vertex="1">
          <mxGeometry x="367" width="183" height="54" as="geometry" />
        </mxCell>
        <mxCell id="KRRu6SAy1QjtI0LFohUm-11" value="" style="shape=partialRectangle;html=1;whiteSpace=wrap;collapsible=0;dropTarget=0;pointerEvents=0;fillColor=none;top=0;left=0;bottom=0;right=0;points=[[0,0.5],[1,0.5]];portConstraint=eastwest;" parent="KRRu6SAy1QjtI0LFohUm-2" vertex="1">
          <mxGeometry y="190" width="550" height="53" as="geometry" />
        </mxCell>
        <mxCell id="KRRu6SAy1QjtI0LFohUm-12" value="L1.1" style="shape=partialRectangle;html=1;whiteSpace=wrap;connectable=0;fillColor=none;top=0;left=0;bottom=0;right=0;overflow=hidden;" parent="KRRu6SAy1QjtI0LFohUm-11" vertex="1">
          <mxGeometry width="183" height="53" as="geometry" />
        </mxCell>
        <mxCell id="KRRu6SAy1QjtI0LFohUm-13" value="&lt;span style=&quot;font-family: &amp;#34;helvetica&amp;#34; , &amp;#34;arial&amp;#34; , sans-serif ; font-size: 11px ; background-color: rgb(255 , 255 , 255)&quot;&gt;tlRFk4eBBcq991lIRRRb&lt;/span&gt;" style="shape=partialRectangle;html=1;whiteSpace=wrap;connectable=0;fillColor=none;top=0;left=0;bottom=0;right=0;overflow=hidden;" parent="KRRu6SAy1QjtI0LFohUm-11" vertex="1">
          <mxGeometry x="183" width="184" height="53" as="geometry" />
        </mxCell>
        <mxCell id="KRRu6SAy1QjtI0LFohUm-14" value="2" style="shape=partialRectangle;html=1;whiteSpace=wrap;connectable=0;fillColor=none;top=0;left=0;bottom=0;right=0;overflow=hidden;" parent="KRRu6SAy1QjtI0LFohUm-11" vertex="1">
          <mxGeometry x="367" width="183" height="53" as="geometry" />
        </mxCell>
        <mxCell id="1R6r8obgaOjEyYwUS1sF-0" style="shape=partialRectangle;html=1;whiteSpace=wrap;collapsible=0;dropTarget=0;pointerEvents=0;fillColor=none;top=0;left=0;bottom=0;right=0;points=[[0,0.5],[1,0.5]];portConstraint=eastwest;" parent="KRRu6SAy1QjtI0LFohUm-2" vertex="1">
          <mxGeometry y="243" width="550" height="53" as="geometry" />
        </mxCell>
        <mxCell id="1R6r8obgaOjEyYwUS1sF-1" value="L1.2" style="shape=partialRectangle;html=1;whiteSpace=wrap;connectable=0;fillColor=none;top=0;left=0;bottom=0;right=0;overflow=hidden;" parent="1R6r8obgaOjEyYwUS1sF-0" vertex="1">
          <mxGeometry width="183" height="53" as="geometry" />
        </mxCell>
        <mxCell id="1R6r8obgaOjEyYwUS1sF-2" value="&lt;span style=&quot;font-family: &amp;#34;helvetica&amp;#34; , &amp;#34;arial&amp;#34; , sans-serif ; font-size: 11px ; background-color: rgb(255 , 255 , 255)&quot;&gt;AVPC2iFZ75LrQb2kquCw&lt;/span&gt;" style="shape=partialRectangle;html=1;whiteSpace=wrap;connectable=0;fillColor=none;top=0;left=0;bottom=0;right=0;overflow=hidden;" parent="1R6r8obgaOjEyYwUS1sF-0" vertex="1">
          <mxGeometry x="183" width="184" height="53" as="geometry" />
        </mxCell>
        <mxCell id="1R6r8obgaOjEyYwUS1sF-3" value="3" style="shape=partialRectangle;html=1;whiteSpace=wrap;connectable=0;fillColor=none;top=0;left=0;bottom=0;right=0;overflow=hidden;" parent="1R6r8obgaOjEyYwUS1sF-0" vertex="1">
          <mxGeometry x="367" width="183" height="53" as="geometry" />
        </mxCell>
        <mxCell id="1R6r8obgaOjEyYwUS1sF-12" style="shape=partialRectangle;html=1;whiteSpace=wrap;collapsible=0;dropTarget=0;pointerEvents=0;fillColor=none;top=0;left=0;bottom=0;right=0;points=[[0,0.5],[1,0.5]];portConstraint=eastwest;" parent="KRRu6SAy1QjtI0LFohUm-2" vertex="1">
          <mxGeometry y="296" width="550" height="53" as="geometry" />
        </mxCell>
        <mxCell id="1R6r8obgaOjEyYwUS1sF-13" value="Master List" style="shape=partialRectangle;html=1;whiteSpace=wrap;connectable=0;fillColor=none;top=0;left=0;bottom=0;right=0;overflow=hidden;" parent="1R6r8obgaOjEyYwUS1sF-12" vertex="1">
          <mxGeometry width="183" height="53" as="geometry" />
        </mxCell>
        <mxCell id="1R6r8obgaOjEyYwUS1sF-14" value="&lt;span style=&quot;font-family: &amp;#34;helvetica&amp;#34; , &amp;#34;arial&amp;#34; , sans-serif ; font-size: 11px ; background-color: rgb(255 , 255 , 255)&quot;&gt;kuv-w-dYHENk8XgKu240&lt;/span&gt;" style="shape=partialRectangle;html=1;whiteSpace=wrap;connectable=0;fillColor=none;top=0;left=0;bottom=0;right=0;overflow=hidden;" parent="1R6r8obgaOjEyYwUS1sF-12" vertex="1">
          <mxGeometry x="183" width="184" height="53" as="geometry" />
        </mxCell>
        <mxCell id="1R6r8obgaOjEyYwUS1sF-15" style="shape=partialRectangle;html=1;whiteSpace=wrap;connectable=0;fillColor=none;top=0;left=0;bottom=0;right=0;overflow=hidden;" parent="1R6r8obgaOjEyYwUS1sF-12" vertex="1">
          <mxGeometry x="367" width="183" height="53" as="geometry" />
        </mxCell>
        <mxCell id="1R6r8obgaOjEyYwUS1sF-8" style="shape=partialRectangle;html=1;whiteSpace=wrap;collapsible=0;dropTarget=0;pointerEvents=0;fillColor=none;top=0;left=0;bottom=0;right=0;points=[[0,0.5],[1,0.5]];portConstraint=eastwest;" parent="KRRu6SAy1QjtI0LFohUm-2" vertex="1">
          <mxGeometry y="349" width="550" height="53" as="geometry" />
        </mxCell>
        <mxCell id="1R6r8obgaOjEyYwUS1sF-9" value="Directory" style="shape=partialRectangle;html=1;whiteSpace=wrap;connectable=0;fillColor=none;top=0;left=0;bottom=0;right=0;overflow=hidden;" parent="1R6r8obgaOjEyYwUS1sF-8" vertex="1">
          <mxGeometry width="183" height="53" as="geometry" />
        </mxCell>
        <mxCell id="1R6r8obgaOjEyYwUS1sF-10" value="&lt;span style=&quot;font-family: &amp;#34;helvetica&amp;#34; , &amp;#34;arial&amp;#34; , sans-serif ; font-size: 11px ; background-color: rgb(255 , 255 , 255)&quot;&gt;a7wp6ZTgdehdbS4kgt2c&lt;/span&gt;" style="shape=partialRectangle;html=1;whiteSpace=wrap;connectable=0;fillColor=none;top=0;left=0;bottom=0;right=0;overflow=hidden;" parent="1R6r8obgaOjEyYwUS1sF-8" vertex="1">
          <mxGeometry x="183" width="184" height="53" as="geometry" />
        </mxCell>
        <mxCell id="1R6r8obgaOjEyYwUS1sF-11" style="shape=partialRectangle;html=1;whiteSpace=wrap;connectable=0;fillColor=none;top=0;left=0;bottom=0;right=0;overflow=hidden;" parent="1R6r8obgaOjEyYwUS1sF-8" vertex="1">
          <mxGeometry x="367" width="183" height="53" as="geometry" />
        </mxCell>
        <mxCell id="1R6r8obgaOjEyYwUS1sF-4" style="shape=partialRectangle;html=1;whiteSpace=wrap;collapsible=0;dropTarget=0;pointerEvents=0;fillColor=none;top=0;left=0;bottom=0;right=0;points=[[0,0.5],[1,0.5]];portConstraint=eastwest;" parent="KRRu6SAy1QjtI0LFohUm-2" vertex="1">
          <mxGeometry y="402" width="550" height="53" as="geometry" />
        </mxCell>
        <mxCell id="1R6r8obgaOjEyYwUS1sF-5" style="shape=partialRectangle;html=1;whiteSpace=wrap;connectable=0;fillColor=none;top=0;left=0;bottom=0;right=0;overflow=hidden;" parent="1R6r8obgaOjEyYwUS1sF-4" vertex="1">
          <mxGeometry width="183" height="53" as="geometry" />
        </mxCell>
        <mxCell id="1R6r8obgaOjEyYwUS1sF-6" style="shape=partialRectangle;html=1;whiteSpace=wrap;connectable=0;fillColor=none;top=0;left=0;bottom=0;right=0;overflow=hidden;" parent="1R6r8obgaOjEyYwUS1sF-4" vertex="1">
          <mxGeometry x="183" width="184" height="53" as="geometry" />
        </mxCell>
        <mxCell id="1R6r8obgaOjEyYwUS1sF-7" style="shape=partialRectangle;html=1;whiteSpace=wrap;connectable=0;fillColor=none;top=0;left=0;bottom=0;right=0;overflow=hidden;" parent="1R6r8obgaOjEyYwUS1sF-4" vertex="1">
          <mxGeometry x="367" width="183" height="53" as="geometry" />
        </mxCell>
        <mxCell id="cISerDiGYAjY79jF5-bJ-4" value="toc" style="shape=partialRectangle;html=1;whiteSpace=wrap;connectable=0;fillColor=none;top=0;left=0;bottom=0;right=0;overflow=hidden;" parent="KRRu6SAy1QjtI0LFohUm-1" vertex="1">
          <mxGeometry x="70" y="143" width="183" height="53" as="geometry" />
        </mxCell>
        <mxCell id="cISerDiGYAjY79jF5-bJ-6" value="0" style="shape=partialRectangle;html=1;whiteSpace=wrap;connectable=0;fillColor=none;top=0;left=0;bottom=0;right=0;overflow=hidden;" parent="KRRu6SAy1QjtI0LFohUm-1" vertex="1">
          <mxGeometry x="437" y="143" width="183" height="53" as="geometry" />
        </mxCell>
      </root>
    </mxGraphModel>
  </diagram>
  <diagram id="PcnxFXX_CNwZoeUF3vSi" name="L0">
    <mxGraphModel dx="1422" dy="762" grid="1" gridSize="10" guides="1" tooltips="1" connect="1" arrows="1" fold="1" page="1" pageScale="1" pageWidth="850" pageHeight="1100" math="0" shadow="0">
      <root>
        <mxCell id="0" />
        <mxCell id="1" parent="0" />
        <mxCell id="pNShpFAwl8dIeted-IlI-3" style="edgeStyle=orthogonalEdgeStyle;rounded=0;orthogonalLoop=1;jettySize=auto;html=1;exitX=1;exitY=0.5;exitDx=0;exitDy=0;entryX=0;entryY=0.5;entryDx=0;entryDy=0;" parent="1" source="uusVccapUz49x9VZ_Bbk-1" target="uusVccapUz49x9VZ_Bbk-2" edge="1">
          <mxGeometry relative="1" as="geometry" />
        </mxCell>
        <mxCell id="uusVccapUz49x9VZ_Bbk-1" value="COHORT&lt;br&gt;DATA ENTRY" style="rounded=0;whiteSpace=wrap;html=1;" parent="1" vertex="1">
          <mxGeometry x="40" y="90" width="120" height="60" as="geometry" />
        </mxCell>
        <mxCell id="pNShpFAwl8dIeted-IlI-4" style="edgeStyle=orthogonalEdgeStyle;rounded=0;orthogonalLoop=1;jettySize=auto;html=1;exitX=0.5;exitY=1;exitDx=0;exitDy=0;" parent="1" source="uusVccapUz49x9VZ_Bbk-2" target="uusVccapUz49x9VZ_Bbk-4" edge="1">
          <mxGeometry relative="1" as="geometry" />
        </mxCell>
        <mxCell id="uusVccapUz49x9VZ_Bbk-2" value="REDCAP" style="rounded=0;whiteSpace=wrap;html=1;" parent="1" vertex="1">
          <mxGeometry x="325" y="90" width="120" height="60" as="geometry" />
        </mxCell>
        <mxCell id="uusVccapUz49x9VZ_Bbk-3" value="COHORT&lt;br&gt;DATA MANAGER" style="rounded=0;whiteSpace=wrap;html=1;" parent="1" vertex="1">
          <mxGeometry x="590" y="90" width="120" height="60" as="geometry" />
        </mxCell>
        <mxCell id="pNShpFAwl8dIeted-IlI-5" style="edgeStyle=orthogonalEdgeStyle;rounded=0;orthogonalLoop=1;jettySize=auto;html=1;exitX=0.5;exitY=1;exitDx=0;exitDy=0;entryX=0.5;entryY=0;entryDx=0;entryDy=0;" parent="1" source="uusVccapUz49x9VZ_Bbk-4" target="uusVccapUz49x9VZ_Bbk-12" edge="1">
          <mxGeometry relative="1" as="geometry" />
        </mxCell>
        <mxCell id="uusVccapUz49x9VZ_Bbk-4" value="NCP" style="rounded=0;whiteSpace=wrap;html=1;" parent="1" vertex="1">
          <mxGeometry x="325" y="250" width="120" height="60" as="geometry" />
        </mxCell>
        <mxCell id="uusVccapUz49x9VZ_Bbk-6" value="" style="endArrow=classic;html=1;entryX=1;entryY=0.5;entryDx=0;entryDy=0;exitX=0;exitY=0.5;exitDx=0;exitDy=0;" parent="1" source="uusVccapUz49x9VZ_Bbk-3" target="uusVccapUz49x9VZ_Bbk-2" edge="1">
          <mxGeometry width="50" height="50" relative="1" as="geometry">
            <mxPoint x="445" y="119.5" as="sourcePoint" />
            <mxPoint x="585" y="120" as="targetPoint" />
            <Array as="points">
              <mxPoint x="485" y="119.5" />
            </Array>
          </mxGeometry>
        </mxCell>
        <mxCell id="uusVccapUz49x9VZ_Bbk-9" value="verifies uploaded data and set to complete" style="text;html=1;strokeColor=none;fillColor=none;align=center;verticalAlign=middle;whiteSpace=wrap;rounded=0;" parent="1" vertex="1">
          <mxGeometry x="460" y="80" width="110" height="40" as="geometry" />
        </mxCell>
        <mxCell id="uusVccapUz49x9VZ_Bbk-10" value="downloads complete records" style="text;html=1;strokeColor=none;fillColor=none;align=center;verticalAlign=middle;whiteSpace=wrap;rounded=0;" parent="1" vertex="1">
          <mxGeometry x="380" y="170" width="90" height="40" as="geometry" />
        </mxCell>
        <mxCell id="uusVccapUz49x9VZ_Bbk-11" value="&lt;h1&gt;SURVEY DATA FLOW OVERVIEW&lt;/h1&gt;" style="text;html=1;strokeColor=none;fillColor=none;spacing=5;spacingTop=-20;whiteSpace=wrap;overflow=hidden;rounded=0;" parent="1" vertex="1">
          <mxGeometry x="10" y="20" width="420" height="40" as="geometry" />
        </mxCell>
        <mxCell id="uusVccapUz49x9VZ_Bbk-12" value="PROCESS AND CLEAN DATA" style="ellipse;whiteSpace=wrap;html=1;" parent="1" vertex="1">
          <mxGeometry x="325" y="390" width="120" height="80" as="geometry" />
        </mxCell>
        <mxCell id="uusVccapUz49x9VZ_Bbk-14" value="" style="edgeStyle=segmentEdgeStyle;endArrow=classic;html=1;exitX=1;exitY=0.5;exitDx=0;exitDy=0;entryX=0.5;entryY=1;entryDx=0;entryDy=0;" parent="1" source="uusVccapUz49x9VZ_Bbk-12" target="uusVccapUz49x9VZ_Bbk-3" edge="1">
          <mxGeometry width="50" height="50" relative="1" as="geometry">
            <mxPoint x="460" y="430" as="sourcePoint" />
            <mxPoint x="640" y="165" as="targetPoint" />
            <Array as="points">
              <mxPoint x="650" y="430" />
            </Array>
          </mxGeometry>
        </mxCell>
        <mxCell id="uusVccapUz49x9VZ_Bbk-15" value="deliver data" style="text;html=1;strokeColor=none;fillColor=none;align=center;verticalAlign=middle;whiteSpace=wrap;rounded=0;" parent="1" vertex="1">
          <mxGeometry x="560" y="400" width="80" height="20" as="geometry" />
        </mxCell>
        <mxCell id="uusVccapUz49x9VZ_Bbk-8" value="uploads data" style="text;html=1;strokeColor=none;fillColor=none;align=center;verticalAlign=middle;whiteSpace=wrap;rounded=0;" parent="1" vertex="1">
          <mxGeometry x="170" y="70" width="130" height="40" as="geometry" />
        </mxCell>
      </root>
    </mxGraphModel>
  </diagram>
  <diagram id="tlRFk4eBBcq991lIRRRb" name="L1.1">
    <mxGraphModel dx="1422" dy="706" grid="1" gridSize="10" guides="1" tooltips="1" connect="1" arrows="1" fold="1" page="1" pageScale="1" pageWidth="850" pageHeight="1100" math="0" shadow="0">
      <root>
        <mxCell id="GkddmLI8EC2VOJqqOEWd-0" />
        <mxCell id="GkddmLI8EC2VOJqqOEWd-1" parent="GkddmLI8EC2VOJqqOEWd-0" />
        <mxCell id="Gywfy5y8vlL0Gi9B_FIE-8" style="edgeStyle=orthogonalEdgeStyle;rounded=0;orthogonalLoop=1;jettySize=auto;html=1;exitX=1;exitY=0.5;exitDx=0;exitDy=0;entryX=0;entryY=0.5;entryDx=0;entryDy=0;" parent="GkddmLI8EC2VOJqqOEWd-1" source="GkddmLI8EC2VOJqqOEWd-2" target="GkddmLI8EC2VOJqqOEWd-3" edge="1">
          <mxGeometry relative="1" as="geometry" />
        </mxCell>
        <mxCell id="GkddmLI8EC2VOJqqOEWd-2" value="REDCap" style="rounded=0;whiteSpace=wrap;html=1;fillColor=#dae8fc;strokeColor=#6c8ebf;" parent="GkddmLI8EC2VOJqqOEWd-1" vertex="1">
          <mxGeometry x="303.5" y="355" width="95" height="60" as="geometry" />
        </mxCell>
        <mxCell id="6ukKe8o3sjgrk8XKY5XH-0" style="edgeStyle=orthogonalEdgeStyle;rounded=0;orthogonalLoop=1;jettySize=auto;html=1;exitX=0.5;exitY=1;exitDx=0;exitDy=0;entryX=0.5;entryY=0;entryDx=0;entryDy=0;" parent="GkddmLI8EC2VOJqqOEWd-1" source="GkddmLI8EC2VOJqqOEWd-3" target="GkddmLI8EC2VOJqqOEWd-38" edge="1">
          <mxGeometry relative="1" as="geometry" />
        </mxCell>
        <mxCell id="GkddmLI8EC2VOJqqOEWd-3" value="DATA MANAGER" style="rounded=0;whiteSpace=wrap;html=1;fillColor=#d5e8d4;strokeColor=#82b366;" parent="GkddmLI8EC2VOJqqOEWd-1" vertex="1">
          <mxGeometry x="493.5" y="355" width="120" height="60" as="geometry" />
        </mxCell>
        <mxCell id="GkddmLI8EC2VOJqqOEWd-6" value="" style="edgeStyle=orthogonalEdgeStyle;rounded=0;orthogonalLoop=1;jettySize=auto;html=1;exitX=0.5;exitY=1;exitDx=0;exitDy=0;entryX=0.25;entryY=0;entryDx=0;entryDy=0;" parent="GkddmLI8EC2VOJqqOEWd-1" source="GkddmLI8EC2VOJqqOEWd-26" target="GkddmLI8EC2VOJqqOEWd-2" edge="1">
          <mxGeometry relative="1" as="geometry">
            <mxPoint x="213.5" y="245" as="sourcePoint" />
            <mxPoint x="333.5" y="335" as="targetPoint" />
            <Array as="points">
              <mxPoint x="212.5" y="300" />
              <mxPoint x="327.5" y="300" />
            </Array>
          </mxGeometry>
        </mxCell>
        <mxCell id="GkddmLI8EC2VOJqqOEWd-7" value="sent data" style="text;html=1;strokeColor=none;fillColor=none;align=center;verticalAlign=middle;whiteSpace=wrap;rounded=0;" parent="GkddmLI8EC2VOJqqOEWd-1" vertex="1">
          <mxGeometry x="43.5" y="425" width="80" height="40" as="geometry" />
        </mxCell>
        <mxCell id="GkddmLI8EC2VOJqqOEWd-8" value="&lt;h1&gt;DATA FLOW PER COHORT&lt;/h1&gt;" style="text;html=1;strokeColor=none;fillColor=none;spacing=5;spacingTop=-20;whiteSpace=wrap;overflow=hidden;rounded=0;" parent="GkddmLI8EC2VOJqqOEWd-1" vertex="1">
          <mxGeometry x="10" y="10" width="350" height="40" as="geometry" />
        </mxCell>
        <mxCell id="GkddmLI8EC2VOJqqOEWd-9" value="verification of data" style="text;html=1;strokeColor=none;fillColor=none;align=center;verticalAlign=middle;whiteSpace=wrap;rounded=0;" parent="GkddmLI8EC2VOJqqOEWd-1" vertex="1">
          <mxGeometry x="563.5" y="445" width="90" height="20" as="geometry" />
        </mxCell>
        <mxCell id="GkddmLI8EC2VOJqqOEWd-10" value="Are there any issues with the data?" style="rhombus;whiteSpace=wrap;html=1;fillColor=#d5e8d4;strokeColor=#82b366;" parent="GkddmLI8EC2VOJqqOEWd-1" vertex="1">
          <mxGeometry x="729.5" y="480" width="110" height="90" as="geometry" />
        </mxCell>
        <mxCell id="GkddmLI8EC2VOJqqOEWd-11" value="Yes" style="text;html=1;strokeColor=none;fillColor=none;align=center;verticalAlign=middle;whiteSpace=wrap;rounded=0;" parent="GkddmLI8EC2VOJqqOEWd-1" vertex="1">
          <mxGeometry x="793.5" y="415" width="40" height="20" as="geometry" />
        </mxCell>
        <mxCell id="Xr-ZzOGrSuQ9R7vMshU8-1" style="edgeStyle=orthogonalEdgeStyle;rounded=0;orthogonalLoop=1;jettySize=auto;html=1;exitX=0;exitY=0.5;exitDx=0;exitDy=0;entryX=1;entryY=0.5;entryDx=0;entryDy=0;" parent="GkddmLI8EC2VOJqqOEWd-1" source="GkddmLI8EC2VOJqqOEWd-12" target="Xr-ZzOGrSuQ9R7vMshU8-0" edge="1">
          <mxGeometry relative="1" as="geometry" />
        </mxCell>
        <mxCell id="GkddmLI8EC2VOJqqOEWd-12" value="open queries in REDCap" style="shape=process;whiteSpace=wrap;html=1;backgroundOutline=1;fillColor=#d5e8d4;strokeColor=#82b366;" parent="GkddmLI8EC2VOJqqOEWd-1" vertex="1">
          <mxGeometry x="680" y="60" width="120" height="60" as="geometry" />
        </mxCell>
        <mxCell id="GkddmLI8EC2VOJqqOEWd-13" value="" style="edgeStyle=segmentEdgeStyle;endArrow=classic;html=1;entryX=0.5;entryY=1;entryDx=0;entryDy=0;exitX=0.5;exitY=0;exitDx=0;exitDy=0;" parent="GkddmLI8EC2VOJqqOEWd-1" source="GkddmLI8EC2VOJqqOEWd-10" target="GkddmLI8EC2VOJqqOEWd-12" edge="1">
          <mxGeometry width="50" height="50" relative="1" as="geometry">
            <mxPoint x="775.5" y="495" as="sourcePoint" />
            <mxPoint x="523.54" y="256.02" as="targetPoint" />
            <Array as="points">
              <mxPoint x="785" y="335" />
              <mxPoint x="740" y="335" />
            </Array>
          </mxGeometry>
        </mxCell>
        <mxCell id="GkddmLI8EC2VOJqqOEWd-14" value="survey data&amp;nbsp;" style="text;html=1;strokeColor=none;fillColor=none;align=center;verticalAlign=middle;whiteSpace=wrap;rounded=0;" parent="GkddmLI8EC2VOJqqOEWd-1" vertex="1">
          <mxGeometry x="408.5" y="395" width="65" height="40" as="geometry" />
        </mxCell>
        <mxCell id="Gywfy5y8vlL0Gi9B_FIE-4" style="edgeStyle=orthogonalEdgeStyle;rounded=0;orthogonalLoop=1;jettySize=auto;html=1;exitX=0.5;exitY=1;exitDx=0;exitDy=0;entryX=0.75;entryY=0;entryDx=0;entryDy=0;" parent="GkddmLI8EC2VOJqqOEWd-1" source="GkddmLI8EC2VOJqqOEWd-15" target="GkddmLI8EC2VOJqqOEWd-2" edge="1">
          <mxGeometry relative="1" as="geometry" />
        </mxCell>
        <mxCell id="GkddmLI8EC2VOJqqOEWd-15" value="Issues Resolved?" style="rhombus;whiteSpace=wrap;html=1;fillColor=#fff2cc;strokeColor=#d6b656;" parent="GkddmLI8EC2VOJqqOEWd-1" vertex="1">
          <mxGeometry x="203.5" y="50" width="80" height="80" as="geometry" />
        </mxCell>
        <mxCell id="GkddmLI8EC2VOJqqOEWd-19" value="update&amp;nbsp; data" style="text;html=1;strokeColor=none;fillColor=none;align=center;verticalAlign=middle;whiteSpace=wrap;rounded=0;" parent="GkddmLI8EC2VOJqqOEWd-1" vertex="1">
          <mxGeometry x="360" y="305" width="130" height="20" as="geometry" />
        </mxCell>
        <mxCell id="Gywfy5y8vlL0Gi9B_FIE-9" style="edgeStyle=orthogonalEdgeStyle;rounded=0;orthogonalLoop=1;jettySize=auto;html=1;exitX=0;exitY=0.5;exitDx=0;exitDy=0;" parent="GkddmLI8EC2VOJqqOEWd-1" source="GkddmLI8EC2VOJqqOEWd-15" target="GkddmLI8EC2VOJqqOEWd-26" edge="1">
          <mxGeometry relative="1" as="geometry">
            <Array as="points" />
          </mxGeometry>
        </mxCell>
        <mxCell id="GkddmLI8EC2VOJqqOEWd-21" value="Yes" style="text;html=1;strokeColor=none;fillColor=none;align=center;verticalAlign=middle;whiteSpace=wrap;rounded=0;" parent="GkddmLI8EC2VOJqqOEWd-1" vertex="1">
          <mxGeometry x="293.5" y="205" width="40" height="20" as="geometry" />
        </mxCell>
        <mxCell id="Gywfy5y8vlL0Gi9B_FIE-0" style="edgeStyle=orthogonalEdgeStyle;rounded=0;orthogonalLoop=1;jettySize=auto;html=1;exitX=0.5;exitY=1;exitDx=0;exitDy=0;entryX=0.5;entryY=0;entryDx=0;entryDy=0;" parent="GkddmLI8EC2VOJqqOEWd-1" source="GkddmLI8EC2VOJqqOEWd-23" target="GkddmLI8EC2VOJqqOEWd-24" edge="1">
          <mxGeometry relative="1" as="geometry" />
        </mxCell>
        <mxCell id="GkddmLI8EC2VOJqqOEWd-23" value="&lt;span&gt;COHORT&lt;/span&gt;&lt;br&gt;&lt;span&gt;DATA ENTRY&lt;/span&gt;" style="rounded=1;whiteSpace=wrap;html=1;fillColor=#fff2cc;strokeColor=#d6b656;" parent="GkddmLI8EC2VOJqqOEWd-1" vertex="1">
          <mxGeometry x="13.5" y="355" width="70" height="60" as="geometry" />
        </mxCell>
        <mxCell id="Gywfy5y8vlL0Gi9B_FIE-1" style="edgeStyle=orthogonalEdgeStyle;rounded=0;orthogonalLoop=1;jettySize=auto;html=1;exitX=0.5;exitY=1;exitDx=0;exitDy=0;entryX=0.5;entryY=0;entryDx=0;entryDy=0;" parent="GkddmLI8EC2VOJqqOEWd-1" source="GkddmLI8EC2VOJqqOEWd-24" target="GkddmLI8EC2VOJqqOEWd-29" edge="1">
          <mxGeometry relative="1" as="geometry" />
        </mxCell>
        <mxCell id="GkddmLI8EC2VOJqqOEWd-24" value="capture data thru eCRF" style="shape=process;whiteSpace=wrap;html=1;backgroundOutline=1;fillColor=#fff2cc;strokeColor=#d6b656;" parent="GkddmLI8EC2VOJqqOEWd-1" vertex="1">
          <mxGeometry x="11" y="495" width="75" height="60" as="geometry" />
        </mxCell>
        <mxCell id="GkddmLI8EC2VOJqqOEWd-25" value="stored data&amp;nbsp; and set form to complete if all data are gathered" style="text;html=1;strokeColor=none;fillColor=none;align=center;verticalAlign=middle;whiteSpace=wrap;rounded=0;" parent="GkddmLI8EC2VOJqqOEWd-1" vertex="1">
          <mxGeometry x="260" y="470" width="80" height="80" as="geometry" />
        </mxCell>
        <mxCell id="GkddmLI8EC2VOJqqOEWd-26" value="Make a note of the issue" style="shape=process;whiteSpace=wrap;html=1;backgroundOutline=1;fillColor=#fff2cc;strokeColor=#d6b656;" parent="GkddmLI8EC2VOJqqOEWd-1" vertex="1">
          <mxGeometry x="11" y="120" width="97.5" height="70" as="geometry" />
        </mxCell>
        <mxCell id="GkddmLI8EC2VOJqqOEWd-28" value="sent data" style="text;html=1;strokeColor=none;fillColor=none;align=center;verticalAlign=middle;whiteSpace=wrap;rounded=0;" parent="GkddmLI8EC2VOJqqOEWd-1" vertex="1">
          <mxGeometry x="43.5" y="565" width="80" height="40" as="geometry" />
        </mxCell>
        <mxCell id="Gywfy5y8vlL0Gi9B_FIE-2" style="edgeStyle=orthogonalEdgeStyle;rounded=0;orthogonalLoop=1;jettySize=auto;html=1;exitX=1;exitY=0.5;exitDx=0;exitDy=0;entryX=0;entryY=0.5;entryDx=0;entryDy=0;" parent="GkddmLI8EC2VOJqqOEWd-1" source="GkddmLI8EC2VOJqqOEWd-29" target="GkddmLI8EC2VOJqqOEWd-30" edge="1">
          <mxGeometry relative="1" as="geometry" />
        </mxCell>
        <mxCell id="GkddmLI8EC2VOJqqOEWd-29" value="run data validation" style="shape=process;whiteSpace=wrap;html=1;backgroundOutline=1;fillColor=#dae8fc;strokeColor=#6c8ebf;" parent="GkddmLI8EC2VOJqqOEWd-1" vertex="1">
          <mxGeometry x="11" y="635" width="75" height="60" as="geometry" />
        </mxCell>
        <mxCell id="GkddmLI8EC2VOJqqOEWd-30" value="Pass data validation?" style="rhombus;whiteSpace=wrap;html=1;fillColor=#dae8fc;strokeColor=#6c8ebf;" parent="GkddmLI8EC2VOJqqOEWd-1" vertex="1">
          <mxGeometry x="193.5" y="620" width="100" height="90" as="geometry" />
        </mxCell>
        <mxCell id="GkddmLI8EC2VOJqqOEWd-32" value="Yes" style="text;html=1;strokeColor=none;fillColor=none;align=center;verticalAlign=middle;whiteSpace=wrap;rounded=0;" parent="GkddmLI8EC2VOJqqOEWd-1" vertex="1">
          <mxGeometry x="328.5" y="675" width="40" height="20" as="geometry" />
        </mxCell>
        <mxCell id="GkddmLI8EC2VOJqqOEWd-33" value="" style="edgeStyle=segmentEdgeStyle;endArrow=classic;html=1;entryX=1;entryY=0.5;entryDx=0;entryDy=0;exitX=0.5;exitY=0;exitDx=0;exitDy=0;" parent="GkddmLI8EC2VOJqqOEWd-1" source="GkddmLI8EC2VOJqqOEWd-30" target="GkddmLI8EC2VOJqqOEWd-23" edge="1">
          <mxGeometry width="50" height="50" relative="1" as="geometry">
            <mxPoint x="243.5" y="615" as="sourcePoint" />
            <mxPoint x="113.5" y="415" as="targetPoint" />
            <Array as="points">
              <mxPoint x="243.5" y="385" />
            </Array>
          </mxGeometry>
        </mxCell>
        <mxCell id="GkddmLI8EC2VOJqqOEWd-34" value="" style="edgeStyle=segmentEdgeStyle;endArrow=classic;html=1;exitX=1;exitY=0.5;exitDx=0;exitDy=0;entryX=0.25;entryY=1;entryDx=0;entryDy=0;" parent="GkddmLI8EC2VOJqqOEWd-1" source="GkddmLI8EC2VOJqqOEWd-30" target="GkddmLI8EC2VOJqqOEWd-2" edge="1">
          <mxGeometry width="50" height="50" relative="1" as="geometry">
            <mxPoint x="303.5" y="665" as="sourcePoint" />
            <mxPoint x="353.5" y="425" as="targetPoint" />
          </mxGeometry>
        </mxCell>
        <mxCell id="GkddmLI8EC2VOJqqOEWd-35" value="No" style="text;html=1;strokeColor=none;fillColor=none;align=center;verticalAlign=middle;whiteSpace=wrap;rounded=0;" parent="GkddmLI8EC2VOJqqOEWd-1" vertex="1">
          <mxGeometry x="203.5" y="565" width="40" height="20" as="geometry" />
        </mxCell>
        <mxCell id="GkddmLI8EC2VOJqqOEWd-36" value="confirm data" style="text;html=1;strokeColor=none;fillColor=none;align=center;verticalAlign=middle;whiteSpace=wrap;rounded=0;" parent="GkddmLI8EC2VOJqqOEWd-1" vertex="1">
          <mxGeometry x="143.5" y="345" width="80" height="20" as="geometry" />
        </mxCell>
        <mxCell id="Gywfy5y8vlL0Gi9B_FIE-7" style="edgeStyle=orthogonalEdgeStyle;rounded=0;orthogonalLoop=1;jettySize=auto;html=1;exitX=1;exitY=0.5;exitDx=0;exitDy=0;entryX=0;entryY=0.5;entryDx=0;entryDy=0;" parent="GkddmLI8EC2VOJqqOEWd-1" source="GkddmLI8EC2VOJqqOEWd-38" target="GkddmLI8EC2VOJqqOEWd-10" edge="1">
          <mxGeometry relative="1" as="geometry" />
        </mxCell>
        <mxCell id="GkddmLI8EC2VOJqqOEWd-38" value="inspect the data" style="shape=process;whiteSpace=wrap;html=1;backgroundOutline=1;fillColor=#d5e8d4;strokeColor=#82b366;" parent="GkddmLI8EC2VOJqqOEWd-1" vertex="1">
          <mxGeometry x="498.5" y="485" width="110" height="80" as="geometry" />
        </mxCell>
        <mxCell id="GkddmLI8EC2VOJqqOEWd-39" value="No" style="text;html=1;strokeColor=none;fillColor=none;align=center;verticalAlign=middle;whiteSpace=wrap;rounded=0;" parent="GkddmLI8EC2VOJqqOEWd-1" vertex="1">
          <mxGeometry x="743.5" y="585" width="40" height="20" as="geometry" />
        </mxCell>
        <mxCell id="GkddmLI8EC2VOJqqOEWd-41" value="" style="edgeStyle=elbowEdgeStyle;elbow=vertical;endArrow=classic;html=1;entryX=0.75;entryY=1;entryDx=0;entryDy=0;exitX=0.5;exitY=1;exitDx=0;exitDy=0;" parent="GkddmLI8EC2VOJqqOEWd-1" source="GkddmLI8EC2VOJqqOEWd-10" target="GkddmLI8EC2VOJqqOEWd-2" edge="1">
          <mxGeometry width="50" height="50" relative="1" as="geometry">
            <mxPoint x="783.5" y="575" as="sourcePoint" />
            <mxPoint x="383.5" y="425" as="targetPoint" />
            <Array as="points">
              <mxPoint x="543.5" y="655" />
            </Array>
          </mxGeometry>
        </mxCell>
        <mxCell id="GkddmLI8EC2VOJqqOEWd-42" value="lock instruments" style="text;html=1;strokeColor=none;fillColor=none;align=center;verticalAlign=middle;whiteSpace=wrap;rounded=0;" parent="GkddmLI8EC2VOJqqOEWd-1" vertex="1">
          <mxGeometry x="443.5" y="635" width="230" height="20" as="geometry" />
        </mxCell>
        <mxCell id="Xr-ZzOGrSuQ9R7vMshU8-4" style="edgeStyle=orthogonalEdgeStyle;rounded=0;orthogonalLoop=1;jettySize=auto;html=1;exitX=0;exitY=0.5;exitDx=0;exitDy=0;entryX=1;entryY=0.5;entryDx=0;entryDy=0;" parent="GkddmLI8EC2VOJqqOEWd-1" source="Xr-ZzOGrSuQ9R7vMshU8-0" target="GkddmLI8EC2VOJqqOEWd-15" edge="1">
          <mxGeometry relative="1" as="geometry" />
        </mxCell>
        <mxCell id="Xr-ZzOGrSuQ9R7vMshU8-0" value="Liaison officer/data entry to investigate" style="shape=process;whiteSpace=wrap;html=1;backgroundOutline=1;fillColor=#fff2cc;strokeColor=#d6b656;" parent="GkddmLI8EC2VOJqqOEWd-1" vertex="1">
          <mxGeometry x="398.5" y="60" width="120" height="60" as="geometry" />
        </mxCell>
        <mxCell id="Xr-ZzOGrSuQ9R7vMshU8-3" value="send queries to liason officer/data entry&amp;nbsp;" style="text;html=1;strokeColor=none;fillColor=none;align=center;verticalAlign=middle;whiteSpace=wrap;rounded=0;" parent="GkddmLI8EC2VOJqqOEWd-1" vertex="1">
          <mxGeometry x="550" y="40" width="100" height="40" as="geometry" />
        </mxCell>
        <mxCell id="Xr-ZzOGrSuQ9R7vMshU8-5" value="No" style="text;html=1;strokeColor=none;fillColor=none;align=center;verticalAlign=middle;whiteSpace=wrap;rounded=0;" parent="GkddmLI8EC2VOJqqOEWd-1" vertex="1">
          <mxGeometry x="110" y="60" width="83.5" height="20" as="geometry" />
        </mxCell>
      </root>
    </mxGraphModel>
  </diagram>
  <diagram id="AVPC2iFZ75LrQb2kquCw" name="L1.2">
    <mxGraphModel dx="1422" dy="706" grid="1" gridSize="10" guides="1" tooltips="1" connect="1" arrows="1" fold="1" page="1" pageScale="1" pageWidth="850" pageHeight="1100" math="0" shadow="0">
      <root>
        <mxCell id="QY3mYf_DBl7f5EHEKqw6-0" />
        <mxCell id="QY3mYf_DBl7f5EHEKqw6-1" parent="QY3mYf_DBl7f5EHEKqw6-0" />
        <mxCell id="oQkS8Q7yjVcAXt84XDg5-0" style="edgeStyle=orthogonalEdgeStyle;rounded=0;orthogonalLoop=1;jettySize=auto;html=1;exitX=0.5;exitY=1;exitDx=0;exitDy=0;entryX=0.5;entryY=0;entryDx=0;entryDy=0;" parent="QY3mYf_DBl7f5EHEKqw6-1" source="UQFggto1OigCQ2oJXbB6-0" target="UQFggto1OigCQ2oJXbB6-1" edge="1">
          <mxGeometry relative="1" as="geometry" />
        </mxCell>
        <mxCell id="UQFggto1OigCQ2oJXbB6-0" value="REDCAP" style="rounded=0;whiteSpace=wrap;html=1;strokeWidth=1;" parent="QY3mYf_DBl7f5EHEKqw6-1" vertex="1">
          <mxGeometry x="20" y="110" width="120" height="60" as="geometry" />
        </mxCell>
        <mxCell id="oQkS8Q7yjVcAXt84XDg5-1" style="edgeStyle=orthogonalEdgeStyle;rounded=0;orthogonalLoop=1;jettySize=auto;html=1;exitX=1;exitY=0.5;exitDx=0;exitDy=0;entryX=0;entryY=0;entryDx=0;entryDy=65;entryPerimeter=0;" parent="QY3mYf_DBl7f5EHEKqw6-1" source="UQFggto1OigCQ2oJXbB6-1" target="UQFggto1OigCQ2oJXbB6-2" edge="1">
          <mxGeometry relative="1" as="geometry" />
        </mxCell>
        <mxCell id="UQFggto1OigCQ2oJXbB6-1" value="NCP" style="rounded=0;whiteSpace=wrap;html=1;strokeWidth=1;" parent="QY3mYf_DBl7f5EHEKqw6-1" vertex="1">
          <mxGeometry x="20" y="288" width="120" height="60" as="geometry" />
        </mxCell>
        <mxCell id="oQkS8Q7yjVcAXt84XDg5-2" style="edgeStyle=orthogonalEdgeStyle;rounded=0;orthogonalLoop=1;jettySize=auto;html=1;exitX=1;exitY=0.5;exitDx=0;exitDy=0;exitPerimeter=0;entryX=0;entryY=0.5;entryDx=0;entryDy=0;" parent="QY3mYf_DBl7f5EHEKqw6-1" source="UQFggto1OigCQ2oJXbB6-2" target="UQFggto1OigCQ2oJXbB6-9" edge="1">
          <mxGeometry relative="1" as="geometry" />
        </mxCell>
        <mxCell id="oQkS8Q7yjVcAXt84XDg5-3" style="edgeStyle=orthogonalEdgeStyle;rounded=0;orthogonalLoop=1;jettySize=auto;html=1;exitX=0.5;exitY=1;exitDx=0;exitDy=0;exitPerimeter=0;entryX=0.5;entryY=0;entryDx=0;entryDy=0;entryPerimeter=0;" parent="QY3mYf_DBl7f5EHEKqw6-1" source="UQFggto1OigCQ2oJXbB6-2" target="UQFggto1OigCQ2oJXbB6-3" edge="1">
          <mxGeometry relative="1" as="geometry" />
        </mxCell>
        <mxCell id="UQFggto1OigCQ2oJXbB6-2" value="RAW DATA&lt;br&gt;FOLDER" style="shape=card;whiteSpace=wrap;html=1;strokeWidth=1;" parent="QY3mYf_DBl7f5EHEKqw6-1" vertex="1">
          <mxGeometry x="250" y="253" width="80" height="100" as="geometry" />
        </mxCell>
        <mxCell id="oQkS8Q7yjVcAXt84XDg5-4" style="edgeStyle=orthogonalEdgeStyle;rounded=0;orthogonalLoop=1;jettySize=auto;html=1;exitX=1;exitY=0.5;exitDx=0;exitDy=0;exitPerimeter=0;entryX=0;entryY=0.75;entryDx=0;entryDy=0;" parent="QY3mYf_DBl7f5EHEKqw6-1" source="UQFggto1OigCQ2oJXbB6-3" target="UQFggto1OigCQ2oJXbB6-14" edge="1">
          <mxGeometry relative="1" as="geometry" />
        </mxCell>
        <mxCell id="UQFggto1OigCQ2oJXbB6-3" value="CLEANING DATA&lt;br&gt;FOLDER" style="shape=card;whiteSpace=wrap;html=1;strokeWidth=1;" parent="QY3mYf_DBl7f5EHEKqw6-1" vertex="1">
          <mxGeometry x="250" y="465" width="80" height="100" as="geometry" />
        </mxCell>
        <mxCell id="oQkS8Q7yjVcAXt84XDg5-9" style="edgeStyle=orthogonalEdgeStyle;rounded=0;orthogonalLoop=1;jettySize=auto;html=1;exitX=0;exitY=0;exitDx=0;exitDy=65;exitPerimeter=0;entryX=1;entryY=0.5;entryDx=0;entryDy=0;" parent="QY3mYf_DBl7f5EHEKqw6-1" source="UQFggto1OigCQ2oJXbB6-4" target="UQFggto1OigCQ2oJXbB6-28" edge="1">
          <mxGeometry relative="1" as="geometry" />
        </mxCell>
        <mxCell id="oQkS8Q7yjVcAXt84XDg5-10" style="edgeStyle=orthogonalEdgeStyle;rounded=0;orthogonalLoop=1;jettySize=auto;html=1;exitX=0.5;exitY=1;exitDx=0;exitDy=0;exitPerimeter=0;entryX=0.4;entryY=0.1;entryDx=0;entryDy=0;entryPerimeter=0;" parent="QY3mYf_DBl7f5EHEKqw6-1" source="UQFggto1OigCQ2oJXbB6-4" target="UQFggto1OigCQ2oJXbB6-5" edge="1">
          <mxGeometry relative="1" as="geometry" />
        </mxCell>
        <mxCell id="UQFggto1OigCQ2oJXbB6-4" value="DELIVERED DATA&lt;br&gt;FOLDER" style="shape=card;whiteSpace=wrap;html=1;strokeWidth=1;" parent="QY3mYf_DBl7f5EHEKqw6-1" vertex="1">
          <mxGeometry x="500" y="630" width="80" height="100" as="geometry" />
        </mxCell>
        <mxCell id="UQFggto1OigCQ2oJXbB6-5" value="CLOUD STORAGE" style="ellipse;shape=cloud;whiteSpace=wrap;html=1;strokeWidth=1;" parent="QY3mYf_DBl7f5EHEKqw6-1" vertex="1">
          <mxGeometry x="476" y="790" width="160" height="110" as="geometry" />
        </mxCell>
        <mxCell id="UQFggto1OigCQ2oJXbB6-6" value="data download" style="text;html=1;align=center;verticalAlign=middle;resizable=0;points=[];autosize=1;strokeColor=none;" parent="QY3mYf_DBl7f5EHEKqw6-1" vertex="1">
          <mxGeometry x="70" y="220" width="100" height="20" as="geometry" />
        </mxCell>
        <mxCell id="UQFggto1OigCQ2oJXbB6-9" value="Lock downloaded records in REDCap" style="shape=process;whiteSpace=wrap;html=1;backgroundOutline=1;strokeWidth=1;" parent="QY3mYf_DBl7f5EHEKqw6-1" vertex="1">
          <mxGeometry x="400" y="268" width="120" height="70" as="geometry" />
        </mxCell>
        <mxCell id="UQFggto1OigCQ2oJXbB6-10" value="data append" style="text;html=1;strokeColor=none;fillColor=none;align=center;verticalAlign=middle;whiteSpace=wrap;rounded=0;" parent="QY3mYf_DBl7f5EHEKqw6-1" vertex="1">
          <mxGeometry x="150" y="290" width="80" height="20" as="geometry" />
        </mxCell>
        <mxCell id="UQFggto1OigCQ2oJXbB6-13" value="copy raw data" style="text;html=1;align=center;verticalAlign=middle;resizable=0;points=[];autosize=1;strokeColor=none;" parent="QY3mYf_DBl7f5EHEKqw6-1" vertex="1">
          <mxGeometry x="285" y="400" width="90" height="20" as="geometry" />
        </mxCell>
        <mxCell id="oQkS8Q7yjVcAXt84XDg5-5" style="edgeStyle=orthogonalEdgeStyle;rounded=0;orthogonalLoop=1;jettySize=auto;html=1;exitX=1;exitY=0.75;exitDx=0;exitDy=0;entryX=0;entryY=0.5;entryDx=0;entryDy=0;" parent="QY3mYf_DBl7f5EHEKqw6-1" source="UQFggto1OigCQ2oJXbB6-14" target="UQFggto1OigCQ2oJXbB6-19" edge="1">
          <mxGeometry relative="1" as="geometry" />
        </mxCell>
        <mxCell id="UQFggto1OigCQ2oJXbB6-14" value="inspect scripts&lt;br&gt;logic checking scripts" style="shape=process;whiteSpace=wrap;html=1;backgroundOutline=1;strokeWidth=1;" parent="QY3mYf_DBl7f5EHEKqw6-1" vertex="1">
          <mxGeometry x="450" y="485" width="150" height="40" as="geometry" />
        </mxCell>
        <mxCell id="UQFggto1OigCQ2oJXbB6-16" value="" style="edgeStyle=segmentEdgeStyle;endArrow=classic;html=1;entryX=1;entryY=0.5;entryDx=0;entryDy=0;exitX=0.5;exitY=0;exitDx=0;exitDy=0;" parent="QY3mYf_DBl7f5EHEKqw6-1" source="UQFggto1OigCQ2oJXbB6-9" target="UQFggto1OigCQ2oJXbB6-0" edge="1">
          <mxGeometry width="50" height="50" relative="1" as="geometry">
            <mxPoint x="470" y="270" as="sourcePoint" />
            <mxPoint x="160" y="140" as="targetPoint" />
            <Array as="points">
              <mxPoint x="460" y="140" />
            </Array>
          </mxGeometry>
        </mxCell>
        <mxCell id="UQFggto1OigCQ2oJXbB6-17" value="sampaid" style="text;html=1;strokeColor=none;fillColor=none;align=center;verticalAlign=middle;whiteSpace=wrap;rounded=0;" parent="QY3mYf_DBl7f5EHEKqw6-1" vertex="1">
          <mxGeometry x="230" y="150" width="110" height="20" as="geometry" />
        </mxCell>
        <mxCell id="UQFggto1OigCQ2oJXbB6-18" value="cleaning scripts" style="text;html=1;align=center;verticalAlign=middle;resizable=0;points=[];autosize=1;strokeColor=none;" parent="QY3mYf_DBl7f5EHEKqw6-1" vertex="1">
          <mxGeometry x="335" y="480" width="100" height="20" as="geometry" />
        </mxCell>
        <mxCell id="oQkS8Q7yjVcAXt84XDg5-6" style="edgeStyle=orthogonalEdgeStyle;rounded=0;orthogonalLoop=1;jettySize=auto;html=1;exitX=0.5;exitY=1;exitDx=0;exitDy=0;entryX=0.5;entryY=0;entryDx=0;entryDy=0;" parent="QY3mYf_DBl7f5EHEKqw6-1" source="UQFggto1OigCQ2oJXbB6-19" target="UQFggto1OigCQ2oJXbB6-25" edge="1">
          <mxGeometry relative="1" as="geometry" />
        </mxCell>
        <mxCell id="UQFggto1OigCQ2oJXbB6-19" value="Done Cleaning" style="rhombus;whiteSpace=wrap;html=1;strokeWidth=1;" parent="QY3mYf_DBl7f5EHEKqw6-1" vertex="1">
          <mxGeometry x="680" y="475" width="80" height="80" as="geometry" />
        </mxCell>
        <mxCell id="UQFggto1OigCQ2oJXbB6-21" value="" style="edgeStyle=elbowEdgeStyle;elbow=vertical;endArrow=classic;html=1;entryX=0.5;entryY=0;entryDx=0;entryDy=0;exitX=0.5;exitY=0;exitDx=0;exitDy=0;" parent="QY3mYf_DBl7f5EHEKqw6-1" source="UQFggto1OigCQ2oJXbB6-19" target="UQFggto1OigCQ2oJXbB6-14" edge="1">
          <mxGeometry width="50" height="50" relative="1" as="geometry">
            <mxPoint x="720" y="460" as="sourcePoint" />
            <mxPoint x="510" y="470" as="targetPoint" />
            <Array as="points">
              <mxPoint x="740" y="400" />
            </Array>
          </mxGeometry>
        </mxCell>
        <mxCell id="UQFggto1OigCQ2oJXbB6-22" value="No" style="text;html=1;strokeColor=none;fillColor=none;align=center;verticalAlign=middle;whiteSpace=wrap;rounded=0;" parent="QY3mYf_DBl7f5EHEKqw6-1" vertex="1">
          <mxGeometry x="730" y="430" width="40" height="20" as="geometry" />
        </mxCell>
        <mxCell id="UQFggto1OigCQ2oJXbB6-24" value="Yes" style="text;html=1;strokeColor=none;fillColor=none;align=center;verticalAlign=middle;whiteSpace=wrap;rounded=0;" parent="QY3mYf_DBl7f5EHEKqw6-1" vertex="1">
          <mxGeometry x="730" y="580" width="40" height="20" as="geometry" />
        </mxCell>
        <mxCell id="oQkS8Q7yjVcAXt84XDg5-11" style="edgeStyle=orthogonalEdgeStyle;rounded=0;orthogonalLoop=1;jettySize=auto;html=1;exitX=0;exitY=0.5;exitDx=0;exitDy=0;entryX=1;entryY=0.5;entryDx=0;entryDy=0;entryPerimeter=0;" parent="QY3mYf_DBl7f5EHEKqw6-1" source="UQFggto1OigCQ2oJXbB6-25" target="UQFggto1OigCQ2oJXbB6-4" edge="1">
          <mxGeometry relative="1" as="geometry" />
        </mxCell>
        <mxCell id="UQFggto1OigCQ2oJXbB6-25" value="copy cleaned data" style="shape=process;whiteSpace=wrap;html=1;backgroundOutline=1;strokeWidth=1;" parent="QY3mYf_DBl7f5EHEKqw6-1" vertex="1">
          <mxGeometry x="670" y="655" width="100" height="50" as="geometry" />
        </mxCell>
        <mxCell id="UQFggto1OigCQ2oJXbB6-27" value="data append" style="text;html=1;strokeColor=none;fillColor=none;align=center;verticalAlign=middle;whiteSpace=wrap;rounded=0;" parent="QY3mYf_DBl7f5EHEKqw6-1" vertex="1">
          <mxGeometry x="590" y="650" width="80" height="20" as="geometry" />
        </mxCell>
        <mxCell id="UQFggto1OigCQ2oJXbB6-28" value="COHORT DATA MANAGER" style="rounded=1;whiteSpace=wrap;html=1;strokeWidth=1;" parent="QY3mYf_DBl7f5EHEKqw6-1" vertex="1">
          <mxGeometry x="280" y="665" width="120" height="60" as="geometry" />
        </mxCell>
        <mxCell id="UQFggto1OigCQ2oJXbB6-30" value="data delivery" style="text;html=1;strokeColor=none;fillColor=none;align=center;verticalAlign=middle;whiteSpace=wrap;rounded=0;" parent="QY3mYf_DBl7f5EHEKqw6-1" vertex="1">
          <mxGeometry x="410" y="660" width="80" height="20" as="geometry" />
        </mxCell>
        <mxCell id="UQFggto1OigCQ2oJXbB6-32" value="&lt;h1&gt;DATA FLOW Sampa Data Mgmt&lt;br&gt;&lt;/h1&gt;" style="text;html=1;strokeColor=none;fillColor=none;spacing=5;spacingTop=-20;whiteSpace=wrap;overflow=hidden;rounded=0;" parent="QY3mYf_DBl7f5EHEKqw6-1" vertex="1">
          <mxGeometry x="10" y="10" width="430" height="40" as="geometry" />
        </mxCell>
      </root>
    </mxGraphModel>
  </diagram>
  <diagram id="kuv-w-dYHENk8XgKu240" name="Master List">
    <mxGraphModel dx="1422" dy="762" grid="1" gridSize="10" guides="1" tooltips="1" connect="1" arrows="1" fold="1" page="1" pageScale="1" pageWidth="850" pageHeight="1100" math="0" shadow="0">
      <root>
        <mxCell id="lNT357fL0FDsAiQYSLkW-0" />
        <mxCell id="lNT357fL0FDsAiQYSLkW-1" parent="lNT357fL0FDsAiQYSLkW-0" />
        <mxCell id="lNT357fL0FDsAiQYSLkW-2" value="Master List" style="shape=table;startSize=30;container=1;collapsible=1;childLayout=tableLayout;fixedRows=1;rowLines=0;fontStyle=1;align=center;resizeLast=1;" parent="lNT357fL0FDsAiQYSLkW-1" vertex="1">
          <mxGeometry x="560" y="370" width="180" height="130" as="geometry" />
        </mxCell>
        <mxCell id="lNT357fL0FDsAiQYSLkW-3" value="" style="shape=partialRectangle;collapsible=0;dropTarget=0;pointerEvents=0;fillColor=none;top=0;left=0;bottom=1;right=0;points=[[0,0.5],[1,0.5]];portConstraint=eastwest;" parent="lNT357fL0FDsAiQYSLkW-2" vertex="1">
          <mxGeometry y="30" width="180" height="30" as="geometry" />
        </mxCell>
        <mxCell id="lNT357fL0FDsAiQYSLkW-4" value="PK" style="shape=partialRectangle;connectable=0;fillColor=none;top=0;left=0;bottom=0;right=0;fontStyle=1;overflow=hidden;" parent="lNT357fL0FDsAiQYSLkW-3" vertex="1">
          <mxGeometry width="30" height="30" as="geometry" />
        </mxCell>
        <mxCell id="lNT357fL0FDsAiQYSLkW-5" value="sampa_id" style="shape=partialRectangle;connectable=0;fillColor=none;top=0;left=0;bottom=0;right=0;align=left;spacingLeft=6;fontStyle=5;overflow=hidden;" parent="lNT357fL0FDsAiQYSLkW-3" vertex="1">
          <mxGeometry x="30" width="150" height="30" as="geometry" />
        </mxCell>
        <mxCell id="lNT357fL0FDsAiQYSLkW-6" value="" style="shape=partialRectangle;collapsible=0;dropTarget=0;pointerEvents=0;fillColor=none;top=0;left=0;bottom=0;right=0;points=[[0,0.5],[1,0.5]];portConstraint=eastwest;" parent="lNT357fL0FDsAiQYSLkW-2" vertex="1">
          <mxGeometry y="60" width="180" height="30" as="geometry" />
        </mxCell>
        <mxCell id="lNT357fL0FDsAiQYSLkW-7" value="" style="shape=partialRectangle;connectable=0;fillColor=none;top=0;left=0;bottom=0;right=0;editable=1;overflow=hidden;" parent="lNT357fL0FDsAiQYSLkW-6" vertex="1">
          <mxGeometry width="30" height="30" as="geometry" />
        </mxCell>
        <mxCell id="lNT357fL0FDsAiQYSLkW-8" value="orgid" style="shape=partialRectangle;connectable=0;fillColor=none;top=0;left=0;bottom=0;right=0;align=left;spacingLeft=6;overflow=hidden;" parent="lNT357fL0FDsAiQYSLkW-6" vertex="1">
          <mxGeometry x="30" width="150" height="30" as="geometry" />
        </mxCell>
        <mxCell id="lNT357fL0FDsAiQYSLkW-9" value="" style="shape=partialRectangle;collapsible=0;dropTarget=0;pointerEvents=0;fillColor=none;top=0;left=0;bottom=0;right=0;points=[[0,0.5],[1,0.5]];portConstraint=eastwest;" parent="lNT357fL0FDsAiQYSLkW-2" vertex="1">
          <mxGeometry y="90" width="180" height="40" as="geometry" />
        </mxCell>
        <mxCell id="lNT357fL0FDsAiQYSLkW-10" value="" style="shape=partialRectangle;connectable=0;fillColor=none;top=0;left=0;bottom=0;right=0;editable=1;overflow=hidden;" parent="lNT357fL0FDsAiQYSLkW-9" vertex="1">
          <mxGeometry width="30" height="40" as="geometry" />
        </mxCell>
        <mxCell id="lNT357fL0FDsAiQYSLkW-11" value="cohort" style="shape=partialRectangle;connectable=0;fillColor=none;top=0;left=0;bottom=0;right=0;align=left;spacingLeft=6;overflow=hidden;" parent="lNT357fL0FDsAiQYSLkW-9" vertex="1">
          <mxGeometry x="30" width="150" height="40" as="geometry" />
        </mxCell>
        <mxCell id="lNT357fL0FDsAiQYSLkW-12" value="CICADA" style="shape=table;startSize=30;container=1;collapsible=1;childLayout=tableLayout;fixedRows=1;rowLines=0;fontStyle=1;align=center;resizeLast=1;" parent="lNT357fL0FDsAiQYSLkW-1" vertex="1">
          <mxGeometry x="455" y="140" width="180" height="130" as="geometry">
            <mxRectangle x="320" y="300" width="80" height="30" as="alternateBounds" />
          </mxGeometry>
        </mxCell>
        <mxCell id="lNT357fL0FDsAiQYSLkW-13" value="" style="shape=partialRectangle;collapsible=0;dropTarget=0;pointerEvents=0;fillColor=none;top=0;left=0;bottom=1;right=0;points=[[0,0.5],[1,0.5]];portConstraint=eastwest;" parent="lNT357fL0FDsAiQYSLkW-12" vertex="1">
          <mxGeometry y="30" width="180" height="30" as="geometry" />
        </mxCell>
        <mxCell id="lNT357fL0FDsAiQYSLkW-14" value="PK" style="shape=partialRectangle;connectable=0;fillColor=none;top=0;left=0;bottom=0;right=0;fontStyle=1;overflow=hidden;" parent="lNT357fL0FDsAiQYSLkW-13" vertex="1">
          <mxGeometry width="30" height="30" as="geometry" />
        </mxCell>
        <mxCell id="lNT357fL0FDsAiQYSLkW-15" value="sampa_id" style="shape=partialRectangle;connectable=0;fillColor=none;top=0;left=0;bottom=0;right=0;align=left;spacingLeft=6;fontStyle=5;overflow=hidden;" parent="lNT357fL0FDsAiQYSLkW-13" vertex="1">
          <mxGeometry x="30" width="150" height="30" as="geometry" />
        </mxCell>
        <mxCell id="lNT357fL0FDsAiQYSLkW-16" value="" style="shape=partialRectangle;collapsible=0;dropTarget=0;pointerEvents=0;fillColor=none;top=0;left=0;bottom=0;right=0;points=[[0,0.5],[1,0.5]];portConstraint=eastwest;" parent="lNT357fL0FDsAiQYSLkW-12" vertex="1">
          <mxGeometry y="60" width="180" height="30" as="geometry" />
        </mxCell>
        <mxCell id="lNT357fL0FDsAiQYSLkW-17" value="" style="shape=partialRectangle;connectable=0;fillColor=none;top=0;left=0;bottom=0;right=0;editable=1;overflow=hidden;" parent="lNT357fL0FDsAiQYSLkW-16" vertex="1">
          <mxGeometry width="30" height="30" as="geometry" />
        </mxCell>
        <mxCell id="lNT357fL0FDsAiQYSLkW-18" value="orgid" style="shape=partialRectangle;connectable=0;fillColor=none;top=0;left=0;bottom=0;right=0;align=left;spacingLeft=6;overflow=hidden;" parent="lNT357fL0FDsAiQYSLkW-16" vertex="1">
          <mxGeometry x="30" width="150" height="30" as="geometry" />
        </mxCell>
        <mxCell id="lNT357fL0FDsAiQYSLkW-19" value="" style="shape=partialRectangle;collapsible=0;dropTarget=0;pointerEvents=0;fillColor=none;top=0;left=0;bottom=0;right=0;points=[[0,0.5],[1,0.5]];portConstraint=eastwest;" parent="lNT357fL0FDsAiQYSLkW-12" vertex="1">
          <mxGeometry y="90" width="180" height="40" as="geometry" />
        </mxCell>
        <mxCell id="lNT357fL0FDsAiQYSLkW-20" value="" style="shape=partialRectangle;connectable=0;fillColor=none;top=0;left=0;bottom=0;right=0;editable=1;overflow=hidden;" parent="lNT357fL0FDsAiQYSLkW-19" vertex="1">
          <mxGeometry width="30" height="40" as="geometry" />
        </mxCell>
        <mxCell id="lNT357fL0FDsAiQYSLkW-21" value="cohort" style="shape=partialRectangle;connectable=0;fillColor=none;top=0;left=0;bottom=0;right=0;align=left;spacingLeft=6;overflow=hidden;" parent="lNT357fL0FDsAiQYSLkW-19" vertex="1">
          <mxGeometry x="30" width="150" height="40" as="geometry" />
        </mxCell>
        <mxCell id="lNT357fL0FDsAiQYSLkW-22" value="SAM" style="shape=table;startSize=30;container=1;collapsible=1;childLayout=tableLayout;fixedRows=1;rowLines=0;fontStyle=1;align=center;resizeLast=1;" parent="lNT357fL0FDsAiQYSLkW-1" vertex="1">
          <mxGeometry x="235" y="140" width="180" height="130" as="geometry">
            <mxRectangle x="320" y="200" width="60" height="30" as="alternateBounds" />
          </mxGeometry>
        </mxCell>
        <mxCell id="lNT357fL0FDsAiQYSLkW-23" value="" style="shape=partialRectangle;collapsible=0;dropTarget=0;pointerEvents=0;fillColor=none;top=0;left=0;bottom=1;right=0;points=[[0,0.5],[1,0.5]];portConstraint=eastwest;" parent="lNT357fL0FDsAiQYSLkW-22" vertex="1">
          <mxGeometry y="30" width="180" height="30" as="geometry" />
        </mxCell>
        <mxCell id="lNT357fL0FDsAiQYSLkW-24" value="PK" style="shape=partialRectangle;connectable=0;fillColor=none;top=0;left=0;bottom=0;right=0;fontStyle=1;overflow=hidden;" parent="lNT357fL0FDsAiQYSLkW-23" vertex="1">
          <mxGeometry width="30" height="30" as="geometry" />
        </mxCell>
        <mxCell id="lNT357fL0FDsAiQYSLkW-25" value="sampa_id" style="shape=partialRectangle;connectable=0;fillColor=none;top=0;left=0;bottom=0;right=0;align=left;spacingLeft=6;fontStyle=5;overflow=hidden;" parent="lNT357fL0FDsAiQYSLkW-23" vertex="1">
          <mxGeometry x="30" width="150" height="30" as="geometry" />
        </mxCell>
        <mxCell id="lNT357fL0FDsAiQYSLkW-26" value="" style="shape=partialRectangle;collapsible=0;dropTarget=0;pointerEvents=0;fillColor=none;top=0;left=0;bottom=0;right=0;points=[[0,0.5],[1,0.5]];portConstraint=eastwest;" parent="lNT357fL0FDsAiQYSLkW-22" vertex="1">
          <mxGeometry y="60" width="180" height="30" as="geometry" />
        </mxCell>
        <mxCell id="lNT357fL0FDsAiQYSLkW-27" value="" style="shape=partialRectangle;connectable=0;fillColor=none;top=0;left=0;bottom=0;right=0;editable=1;overflow=hidden;" parent="lNT357fL0FDsAiQYSLkW-26" vertex="1">
          <mxGeometry width="30" height="30" as="geometry" />
        </mxCell>
        <mxCell id="lNT357fL0FDsAiQYSLkW-28" value="orgid" style="shape=partialRectangle;connectable=0;fillColor=none;top=0;left=0;bottom=0;right=0;align=left;spacingLeft=6;overflow=hidden;" parent="lNT357fL0FDsAiQYSLkW-26" vertex="1">
          <mxGeometry x="30" width="150" height="30" as="geometry" />
        </mxCell>
        <mxCell id="lNT357fL0FDsAiQYSLkW-29" value="" style="shape=partialRectangle;collapsible=0;dropTarget=0;pointerEvents=0;fillColor=none;top=0;left=0;bottom=0;right=0;points=[[0,0.5],[1,0.5]];portConstraint=eastwest;" parent="lNT357fL0FDsAiQYSLkW-22" vertex="1">
          <mxGeometry y="90" width="180" height="40" as="geometry" />
        </mxCell>
        <mxCell id="lNT357fL0FDsAiQYSLkW-30" value="" style="shape=partialRectangle;connectable=0;fillColor=none;top=0;left=0;bottom=0;right=0;editable=1;overflow=hidden;" parent="lNT357fL0FDsAiQYSLkW-29" vertex="1">
          <mxGeometry width="30" height="40" as="geometry" />
        </mxCell>
        <mxCell id="lNT357fL0FDsAiQYSLkW-31" value="cohort" style="shape=partialRectangle;connectable=0;fillColor=none;top=0;left=0;bottom=0;right=0;align=left;spacingLeft=6;overflow=hidden;" parent="lNT357fL0FDsAiQYSLkW-29" vertex="1">
          <mxGeometry x="30" width="150" height="40" as="geometry" />
        </mxCell>
        <mxCell id="lNT357fL0FDsAiQYSLkW-32" value="DIVIDS" style="shape=table;startSize=30;container=1;collapsible=1;childLayout=tableLayout;fixedRows=1;rowLines=0;fontStyle=1;align=center;resizeLast=1;" parent="lNT357fL0FDsAiQYSLkW-1" vertex="1">
          <mxGeometry x="25" y="140" width="180" height="130" as="geometry" />
        </mxCell>
        <mxCell id="lNT357fL0FDsAiQYSLkW-33" value="" style="shape=partialRectangle;collapsible=0;dropTarget=0;pointerEvents=0;fillColor=none;top=0;left=0;bottom=1;right=0;points=[[0,0.5],[1,0.5]];portConstraint=eastwest;" parent="lNT357fL0FDsAiQYSLkW-32" vertex="1">
          <mxGeometry y="30" width="180" height="30" as="geometry" />
        </mxCell>
        <mxCell id="lNT357fL0FDsAiQYSLkW-34" value="PK" style="shape=partialRectangle;connectable=0;fillColor=none;top=0;left=0;bottom=0;right=0;fontStyle=1;overflow=hidden;" parent="lNT357fL0FDsAiQYSLkW-33" vertex="1">
          <mxGeometry width="30" height="30" as="geometry" />
        </mxCell>
        <mxCell id="lNT357fL0FDsAiQYSLkW-35" value="sampa_id" style="shape=partialRectangle;connectable=0;fillColor=none;top=0;left=0;bottom=0;right=0;align=left;spacingLeft=6;fontStyle=5;overflow=hidden;" parent="lNT357fL0FDsAiQYSLkW-33" vertex="1">
          <mxGeometry x="30" width="150" height="30" as="geometry" />
        </mxCell>
        <mxCell id="lNT357fL0FDsAiQYSLkW-36" value="" style="shape=partialRectangle;collapsible=0;dropTarget=0;pointerEvents=0;fillColor=none;top=0;left=0;bottom=0;right=0;points=[[0,0.5],[1,0.5]];portConstraint=eastwest;" parent="lNT357fL0FDsAiQYSLkW-32" vertex="1">
          <mxGeometry y="60" width="180" height="30" as="geometry" />
        </mxCell>
        <mxCell id="lNT357fL0FDsAiQYSLkW-37" value="" style="shape=partialRectangle;connectable=0;fillColor=none;top=0;left=0;bottom=0;right=0;editable=1;overflow=hidden;" parent="lNT357fL0FDsAiQYSLkW-36" vertex="1">
          <mxGeometry width="30" height="30" as="geometry" />
        </mxCell>
        <mxCell id="lNT357fL0FDsAiQYSLkW-38" value="orgid" style="shape=partialRectangle;connectable=0;fillColor=none;top=0;left=0;bottom=0;right=0;align=left;spacingLeft=6;overflow=hidden;" parent="lNT357fL0FDsAiQYSLkW-36" vertex="1">
          <mxGeometry x="30" width="150" height="30" as="geometry" />
        </mxCell>
        <mxCell id="lNT357fL0FDsAiQYSLkW-39" value="" style="shape=partialRectangle;collapsible=0;dropTarget=0;pointerEvents=0;fillColor=none;top=0;left=0;bottom=0;right=0;points=[[0,0.5],[1,0.5]];portConstraint=eastwest;" parent="lNT357fL0FDsAiQYSLkW-32" vertex="1">
          <mxGeometry y="90" width="180" height="40" as="geometry" />
        </mxCell>
        <mxCell id="lNT357fL0FDsAiQYSLkW-40" value="" style="shape=partialRectangle;connectable=0;fillColor=none;top=0;left=0;bottom=0;right=0;editable=1;overflow=hidden;" parent="lNT357fL0FDsAiQYSLkW-39" vertex="1">
          <mxGeometry width="30" height="40" as="geometry" />
        </mxCell>
        <mxCell id="lNT357fL0FDsAiQYSLkW-41" value="cohort" style="shape=partialRectangle;connectable=0;fillColor=none;top=0;left=0;bottom=0;right=0;align=left;spacingLeft=6;overflow=hidden;" parent="lNT357fL0FDsAiQYSLkW-39" vertex="1">
          <mxGeometry x="30" width="150" height="40" as="geometry" />
        </mxCell>
        <mxCell id="lNT357fL0FDsAiQYSLkW-42" value="STATT" style="shape=table;startSize=30;container=1;collapsible=1;childLayout=tableLayout;fixedRows=1;rowLines=0;fontStyle=1;align=center;resizeLast=1;" parent="lNT357fL0FDsAiQYSLkW-1" vertex="1">
          <mxGeometry x="895" y="140" width="180" height="130" as="geometry" />
        </mxCell>
        <mxCell id="lNT357fL0FDsAiQYSLkW-43" value="" style="shape=partialRectangle;collapsible=0;dropTarget=0;pointerEvents=0;fillColor=none;top=0;left=0;bottom=1;right=0;points=[[0,0.5],[1,0.5]];portConstraint=eastwest;" parent="lNT357fL0FDsAiQYSLkW-42" vertex="1">
          <mxGeometry y="30" width="180" height="30" as="geometry" />
        </mxCell>
        <mxCell id="lNT357fL0FDsAiQYSLkW-44" value="PK" style="shape=partialRectangle;connectable=0;fillColor=none;top=0;left=0;bottom=0;right=0;fontStyle=1;overflow=hidden;" parent="lNT357fL0FDsAiQYSLkW-43" vertex="1">
          <mxGeometry width="30" height="30" as="geometry" />
        </mxCell>
        <mxCell id="lNT357fL0FDsAiQYSLkW-45" value="sampa_id" style="shape=partialRectangle;connectable=0;fillColor=none;top=0;left=0;bottom=0;right=0;align=left;spacingLeft=6;fontStyle=5;overflow=hidden;" parent="lNT357fL0FDsAiQYSLkW-43" vertex="1">
          <mxGeometry x="30" width="150" height="30" as="geometry" />
        </mxCell>
        <mxCell id="lNT357fL0FDsAiQYSLkW-46" value="" style="shape=partialRectangle;collapsible=0;dropTarget=0;pointerEvents=0;fillColor=none;top=0;left=0;bottom=0;right=0;points=[[0,0.5],[1,0.5]];portConstraint=eastwest;" parent="lNT357fL0FDsAiQYSLkW-42" vertex="1">
          <mxGeometry y="60" width="180" height="30" as="geometry" />
        </mxCell>
        <mxCell id="lNT357fL0FDsAiQYSLkW-47" value="" style="shape=partialRectangle;connectable=0;fillColor=none;top=0;left=0;bottom=0;right=0;editable=1;overflow=hidden;" parent="lNT357fL0FDsAiQYSLkW-46" vertex="1">
          <mxGeometry width="30" height="30" as="geometry" />
        </mxCell>
        <mxCell id="lNT357fL0FDsAiQYSLkW-48" value="orgid" style="shape=partialRectangle;connectable=0;fillColor=none;top=0;left=0;bottom=0;right=0;align=left;spacingLeft=6;overflow=hidden;" parent="lNT357fL0FDsAiQYSLkW-46" vertex="1">
          <mxGeometry x="30" width="150" height="30" as="geometry" />
        </mxCell>
        <mxCell id="lNT357fL0FDsAiQYSLkW-49" value="" style="shape=partialRectangle;collapsible=0;dropTarget=0;pointerEvents=0;fillColor=none;top=0;left=0;bottom=0;right=0;points=[[0,0.5],[1,0.5]];portConstraint=eastwest;" parent="lNT357fL0FDsAiQYSLkW-42" vertex="1">
          <mxGeometry y="90" width="180" height="40" as="geometry" />
        </mxCell>
        <mxCell id="lNT357fL0FDsAiQYSLkW-50" value="" style="shape=partialRectangle;connectable=0;fillColor=none;top=0;left=0;bottom=0;right=0;editable=1;overflow=hidden;" parent="lNT357fL0FDsAiQYSLkW-49" vertex="1">
          <mxGeometry width="30" height="40" as="geometry" />
        </mxCell>
        <mxCell id="lNT357fL0FDsAiQYSLkW-51" value="cohort" style="shape=partialRectangle;connectable=0;fillColor=none;top=0;left=0;bottom=0;right=0;align=left;spacingLeft=6;overflow=hidden;" parent="lNT357fL0FDsAiQYSLkW-49" vertex="1">
          <mxGeometry x="30" width="150" height="40" as="geometry" />
        </mxCell>
        <mxCell id="lNT357fL0FDsAiQYSLkW-52" value="NUSTART" style="shape=table;startSize=30;container=1;collapsible=1;childLayout=tableLayout;fixedRows=1;rowLines=0;fontStyle=1;align=center;resizeLast=1;" parent="lNT357fL0FDsAiQYSLkW-1" vertex="1">
          <mxGeometry x="685" y="140" width="180" height="130" as="geometry">
            <mxRectangle x="320" y="510" width="90" height="30" as="alternateBounds" />
          </mxGeometry>
        </mxCell>
        <mxCell id="lNT357fL0FDsAiQYSLkW-53" value="" style="shape=partialRectangle;collapsible=0;dropTarget=0;pointerEvents=0;fillColor=none;top=0;left=0;bottom=1;right=0;points=[[0,0.5],[1,0.5]];portConstraint=eastwest;" parent="lNT357fL0FDsAiQYSLkW-52" vertex="1">
          <mxGeometry y="30" width="180" height="30" as="geometry" />
        </mxCell>
        <mxCell id="lNT357fL0FDsAiQYSLkW-54" value="PK" style="shape=partialRectangle;connectable=0;fillColor=none;top=0;left=0;bottom=0;right=0;fontStyle=1;overflow=hidden;" parent="lNT357fL0FDsAiQYSLkW-53" vertex="1">
          <mxGeometry width="30" height="30" as="geometry" />
        </mxCell>
        <mxCell id="lNT357fL0FDsAiQYSLkW-55" value="sampa_id" style="shape=partialRectangle;connectable=0;fillColor=none;top=0;left=0;bottom=0;right=0;align=left;spacingLeft=6;fontStyle=5;overflow=hidden;" parent="lNT357fL0FDsAiQYSLkW-53" vertex="1">
          <mxGeometry x="30" width="150" height="30" as="geometry" />
        </mxCell>
        <mxCell id="lNT357fL0FDsAiQYSLkW-56" value="" style="shape=partialRectangle;collapsible=0;dropTarget=0;pointerEvents=0;fillColor=none;top=0;left=0;bottom=0;right=0;points=[[0,0.5],[1,0.5]];portConstraint=eastwest;" parent="lNT357fL0FDsAiQYSLkW-52" vertex="1">
          <mxGeometry y="60" width="180" height="30" as="geometry" />
        </mxCell>
        <mxCell id="lNT357fL0FDsAiQYSLkW-57" value="" style="shape=partialRectangle;connectable=0;fillColor=none;top=0;left=0;bottom=0;right=0;editable=1;overflow=hidden;" parent="lNT357fL0FDsAiQYSLkW-56" vertex="1">
          <mxGeometry width="30" height="30" as="geometry" />
        </mxCell>
        <mxCell id="lNT357fL0FDsAiQYSLkW-58" value="orgid" style="shape=partialRectangle;connectable=0;fillColor=none;top=0;left=0;bottom=0;right=0;align=left;spacingLeft=6;overflow=hidden;" parent="lNT357fL0FDsAiQYSLkW-56" vertex="1">
          <mxGeometry x="30" width="150" height="30" as="geometry" />
        </mxCell>
        <mxCell id="lNT357fL0FDsAiQYSLkW-59" value="" style="shape=partialRectangle;collapsible=0;dropTarget=0;pointerEvents=0;fillColor=none;top=0;left=0;bottom=0;right=0;points=[[0,0.5],[1,0.5]];portConstraint=eastwest;" parent="lNT357fL0FDsAiQYSLkW-52" vertex="1">
          <mxGeometry y="90" width="180" height="40" as="geometry" />
        </mxCell>
        <mxCell id="lNT357fL0FDsAiQYSLkW-60" value="" style="shape=partialRectangle;connectable=0;fillColor=none;top=0;left=0;bottom=0;right=0;editable=1;overflow=hidden;" parent="lNT357fL0FDsAiQYSLkW-59" vertex="1">
          <mxGeometry width="30" height="40" as="geometry" />
        </mxCell>
        <mxCell id="lNT357fL0FDsAiQYSLkW-61" value="cohort" style="shape=partialRectangle;connectable=0;fillColor=none;top=0;left=0;bottom=0;right=0;align=left;spacingLeft=6;overflow=hidden;" parent="lNT357fL0FDsAiQYSLkW-59" vertex="1">
          <mxGeometry x="30" width="150" height="40" as="geometry" />
        </mxCell>
        <mxCell id="lNT357fL0FDsAiQYSLkW-62" value="CLHNS" style="shape=table;startSize=30;container=1;collapsible=1;childLayout=tableLayout;fixedRows=1;rowLines=0;fontStyle=1;align=center;resizeLast=1;" parent="lNT357fL0FDsAiQYSLkW-1" vertex="1">
          <mxGeometry x="1095" y="140" width="180" height="130" as="geometry" />
        </mxCell>
        <mxCell id="lNT357fL0FDsAiQYSLkW-63" value="" style="shape=partialRectangle;collapsible=0;dropTarget=0;pointerEvents=0;fillColor=none;top=0;left=0;bottom=1;right=0;points=[[0,0.5],[1,0.5]];portConstraint=eastwest;" parent="lNT357fL0FDsAiQYSLkW-62" vertex="1">
          <mxGeometry y="30" width="180" height="30" as="geometry" />
        </mxCell>
        <mxCell id="lNT357fL0FDsAiQYSLkW-64" value="PK" style="shape=partialRectangle;connectable=0;fillColor=none;top=0;left=0;bottom=0;right=0;fontStyle=1;overflow=hidden;" parent="lNT357fL0FDsAiQYSLkW-63" vertex="1">
          <mxGeometry width="30" height="30" as="geometry" />
        </mxCell>
        <mxCell id="lNT357fL0FDsAiQYSLkW-65" value="sampa_id" style="shape=partialRectangle;connectable=0;fillColor=none;top=0;left=0;bottom=0;right=0;align=left;spacingLeft=6;fontStyle=5;overflow=hidden;" parent="lNT357fL0FDsAiQYSLkW-63" vertex="1">
          <mxGeometry x="30" width="150" height="30" as="geometry" />
        </mxCell>
        <mxCell id="lNT357fL0FDsAiQYSLkW-66" value="" style="shape=partialRectangle;collapsible=0;dropTarget=0;pointerEvents=0;fillColor=none;top=0;left=0;bottom=0;right=0;points=[[0,0.5],[1,0.5]];portConstraint=eastwest;" parent="lNT357fL0FDsAiQYSLkW-62" vertex="1">
          <mxGeometry y="60" width="180" height="30" as="geometry" />
        </mxCell>
        <mxCell id="lNT357fL0FDsAiQYSLkW-67" value="" style="shape=partialRectangle;connectable=0;fillColor=none;top=0;left=0;bottom=0;right=0;editable=1;overflow=hidden;" parent="lNT357fL0FDsAiQYSLkW-66" vertex="1">
          <mxGeometry width="30" height="30" as="geometry" />
        </mxCell>
        <mxCell id="lNT357fL0FDsAiQYSLkW-68" value="orgid" style="shape=partialRectangle;connectable=0;fillColor=none;top=0;left=0;bottom=0;right=0;align=left;spacingLeft=6;overflow=hidden;" parent="lNT357fL0FDsAiQYSLkW-66" vertex="1">
          <mxGeometry x="30" width="150" height="30" as="geometry" />
        </mxCell>
        <mxCell id="lNT357fL0FDsAiQYSLkW-69" value="" style="shape=partialRectangle;collapsible=0;dropTarget=0;pointerEvents=0;fillColor=none;top=0;left=0;bottom=0;right=0;points=[[0,0.5],[1,0.5]];portConstraint=eastwest;" parent="lNT357fL0FDsAiQYSLkW-62" vertex="1">
          <mxGeometry y="90" width="180" height="40" as="geometry" />
        </mxCell>
        <mxCell id="lNT357fL0FDsAiQYSLkW-70" value="" style="shape=partialRectangle;connectable=0;fillColor=none;top=0;left=0;bottom=0;right=0;editable=1;overflow=hidden;" parent="lNT357fL0FDsAiQYSLkW-69" vertex="1">
          <mxGeometry width="30" height="40" as="geometry" />
        </mxCell>
        <mxCell id="lNT357fL0FDsAiQYSLkW-71" value="cohort" style="shape=partialRectangle;connectable=0;fillColor=none;top=0;left=0;bottom=0;right=0;align=left;spacingLeft=6;overflow=hidden;" parent="lNT357fL0FDsAiQYSLkW-69" vertex="1">
          <mxGeometry x="30" width="150" height="40" as="geometry" />
        </mxCell>
        <mxCell id="lNT357fL0FDsAiQYSLkW-72" value="" style="strokeWidth=2;html=1;shape=mxgraph.flowchart.annotation_2;align=left;labelPosition=right;pointerEvents=1;rotation=-90;" parent="lNT357fL0FDsAiQYSLkW-1" vertex="1">
          <mxGeometry x="612.5" y="-222.5" width="55" height="1090" as="geometry" />
        </mxCell>
      </root>
    </mxGraphModel>
  </diagram>
  <diagram id="a7wp6ZTgdehdbS4kgt2c" name="Directory Map">
    <mxGraphModel dx="1422" dy="762" grid="1" gridSize="10" guides="1" tooltips="1" connect="1" arrows="1" fold="1" page="1" pageScale="1" pageWidth="850" pageHeight="1100" math="0" shadow="0">
      <root>
        <mxCell id="2Ye4RbttfI9aM-EOrQWo-0" />
        <mxCell id="2Ye4RbttfI9aM-EOrQWo-1" parent="2Ye4RbttfI9aM-EOrQWo-0" />
        <mxCell id="2Ye4RbttfI9aM-EOrQWo-2" value="&lt;h1&gt;MAIN DIRECTORY: SAMPA&lt;/h1&gt;" style="text;html=1;strokeColor=none;fillColor=none;spacing=5;spacingTop=-20;whiteSpace=wrap;overflow=hidden;rounded=0;" parent="2Ye4RbttfI9aM-EOrQWo-1" vertex="1">
          <mxGeometry x="10" y="10" width="520" height="40" as="geometry" />
        </mxCell>
        <mxCell id="2Ye4RbttfI9aM-EOrQWo-3" value="REDCAP" style="shape=card;whiteSpace=wrap;html=1;" parent="2Ye4RbttfI9aM-EOrQWo-1" vertex="1">
          <mxGeometry x="10" y="80" width="60" height="70" as="geometry" />
        </mxCell>
        <mxCell id="2Ye4RbttfI9aM-EOrQWo-4" value="DATA" style="shape=card;whiteSpace=wrap;html=1;" parent="2Ye4RbttfI9aM-EOrQWo-1" vertex="1">
          <mxGeometry x="7.5" y="180" width="65" height="100" as="geometry" />
        </mxCell>
        <mxCell id="2Ye4RbttfI9aM-EOrQWo-5" value="REPORTS" style="shape=card;whiteSpace=wrap;html=1;" parent="2Ye4RbttfI9aM-EOrQWo-1" vertex="1">
          <mxGeometry x="10" y="599" width="60" height="90" as="geometry" />
        </mxCell>
        <mxCell id="2Ye4RbttfI9aM-EOrQWo-6" style="edgeStyle=orthogonalEdgeStyle;rounded=0;orthogonalLoop=1;jettySize=auto;html=1;" parent="2Ye4RbttfI9aM-EOrQWo-1" edge="1">
          <mxGeometry relative="1" as="geometry">
            <mxPoint x="1070" y="170" as="targetPoint" />
            <mxPoint x="10" y="170" as="sourcePoint" />
          </mxGeometry>
        </mxCell>
        <mxCell id="2Ye4RbttfI9aM-EOrQWo-7" value="" style="endArrow=none;html=1;entryX=0.137;entryY=1.025;entryDx=0;entryDy=0;entryPerimeter=0;" parent="2Ye4RbttfI9aM-EOrQWo-1" target="2Ye4RbttfI9aM-EOrQWo-2" edge="1">
          <mxGeometry width="50" height="50" relative="1" as="geometry">
            <mxPoint x="81" y="840" as="sourcePoint" />
            <mxPoint x="80" y="70" as="targetPoint" />
          </mxGeometry>
        </mxCell>
        <mxCell id="2Ye4RbttfI9aM-EOrQWo-8" value="" style="endArrow=none;html=1;" parent="2Ye4RbttfI9aM-EOrQWo-1" edge="1">
          <mxGeometry width="50" height="50" relative="1" as="geometry">
            <mxPoint x="10" y="70" as="sourcePoint" />
            <mxPoint x="1080" y="70" as="targetPoint" />
            <Array as="points">
              <mxPoint x="160" y="70" />
            </Array>
          </mxGeometry>
        </mxCell>
        <mxCell id="2Ye4RbttfI9aM-EOrQWo-9" value="DEVELOPMENT" style="rounded=0;whiteSpace=wrap;html=1;" parent="2Ye4RbttfI9aM-EOrQWo-1" vertex="1">
          <mxGeometry x="100" y="80" width="100" height="40" as="geometry" />
        </mxCell>
        <mxCell id="2Ye4RbttfI9aM-EOrQWo-10" value="PRODUCTION" style="rounded=0;whiteSpace=wrap;html=1;" parent="2Ye4RbttfI9aM-EOrQWo-1" vertex="1">
          <mxGeometry x="100" y="130" width="100" height="40" as="geometry" />
        </mxCell>
        <mxCell id="2Ye4RbttfI9aM-EOrQWo-11" value="DATA BACKUP" style="rounded=0;whiteSpace=wrap;html=1;" parent="2Ye4RbttfI9aM-EOrQWo-1" vertex="1">
          <mxGeometry x="100" y="190" width="100" height="50" as="geometry" />
        </mxCell>
        <mxCell id="2Ye4RbttfI9aM-EOrQWo-12" value="RAW DATA" style="rounded=0;whiteSpace=wrap;html=1;" parent="2Ye4RbttfI9aM-EOrQWo-1" vertex="1">
          <mxGeometry x="100" y="270" width="100" height="50" as="geometry" />
        </mxCell>
        <mxCell id="2Ye4RbttfI9aM-EOrQWo-13" value="CLEANING DATA" style="rounded=0;whiteSpace=wrap;html=1;" parent="2Ye4RbttfI9aM-EOrQWo-1" vertex="1">
          <mxGeometry x="100" y="360" width="100" height="50" as="geometry" />
        </mxCell>
        <mxCell id="2Ye4RbttfI9aM-EOrQWo-14" value="DELIVERED DATA" style="rounded=0;whiteSpace=wrap;html=1;" parent="2Ye4RbttfI9aM-EOrQWo-1" vertex="1">
          <mxGeometry x="100" y="440" width="100" height="50" as="geometry" />
        </mxCell>
        <mxCell id="2Ye4RbttfI9aM-EOrQWo-15" value="SAMPLE DATA" style="rounded=0;whiteSpace=wrap;html=1;" parent="2Ye4RbttfI9aM-EOrQWo-1" vertex="1">
          <mxGeometry x="100" y="520" width="100" height="50" as="geometry" />
        </mxCell>
        <mxCell id="2Ye4RbttfI9aM-EOrQWo-16" value="" style="endArrow=none;html=1;entryX=0.137;entryY=1.025;entryDx=0;entryDy=0;entryPerimeter=0;" parent="2Ye4RbttfI9aM-EOrQWo-1" edge="1">
          <mxGeometry width="50" height="50" relative="1" as="geometry">
            <mxPoint x="218" y="840" as="sourcePoint" />
            <mxPoint x="218.24" y="52" as="targetPoint" />
          </mxGeometry>
        </mxCell>
        <mxCell id="2Ye4RbttfI9aM-EOrQWo-17" value="1 DIVIDS" style="rounded=0;whiteSpace=wrap;html=1;" parent="2Ye4RbttfI9aM-EOrQWo-1" vertex="1">
          <mxGeometry x="240" y="280" width="80" height="30" as="geometry" />
        </mxCell>
        <mxCell id="2Ye4RbttfI9aM-EOrQWo-18" value="2 SAM" style="rounded=0;whiteSpace=wrap;html=1;" parent="2Ye4RbttfI9aM-EOrQWo-1" vertex="1">
          <mxGeometry x="340" y="280" width="80" height="30" as="geometry" />
        </mxCell>
        <mxCell id="2Ye4RbttfI9aM-EOrQWo-19" value="3 CICADA" style="rounded=0;whiteSpace=wrap;html=1;" parent="2Ye4RbttfI9aM-EOrQWo-1" vertex="1">
          <mxGeometry x="440" y="280" width="80" height="30" as="geometry" />
        </mxCell>
        <mxCell id="2Ye4RbttfI9aM-EOrQWo-20" value="4 NUSTART" style="rounded=0;whiteSpace=wrap;html=1;" parent="2Ye4RbttfI9aM-EOrQWo-1" vertex="1">
          <mxGeometry x="540" y="280" width="80" height="30" as="geometry" />
        </mxCell>
        <mxCell id="2Ye4RbttfI9aM-EOrQWo-21" value="5 STATT" style="rounded=0;whiteSpace=wrap;html=1;" parent="2Ye4RbttfI9aM-EOrQWo-1" vertex="1">
          <mxGeometry x="640" y="280" width="80" height="30" as="geometry" />
        </mxCell>
        <mxCell id="2Ye4RbttfI9aM-EOrQWo-22" value="6 CLHNS" style="rounded=0;whiteSpace=wrap;html=1;" parent="2Ye4RbttfI9aM-EOrQWo-1" vertex="1">
          <mxGeometry x="740" y="280" width="80" height="30" as="geometry" />
        </mxCell>
        <mxCell id="2Ye4RbttfI9aM-EOrQWo-23" value="1 DIVIDS" style="rounded=0;whiteSpace=wrap;html=1;" parent="2Ye4RbttfI9aM-EOrQWo-1" vertex="1">
          <mxGeometry x="240" y="370" width="80" height="30" as="geometry" />
        </mxCell>
        <mxCell id="2Ye4RbttfI9aM-EOrQWo-24" value="2 SAM" style="rounded=0;whiteSpace=wrap;html=1;" parent="2Ye4RbttfI9aM-EOrQWo-1" vertex="1">
          <mxGeometry x="340" y="370" width="80" height="30" as="geometry" />
        </mxCell>
        <mxCell id="2Ye4RbttfI9aM-EOrQWo-25" value="3 CICADA" style="rounded=0;whiteSpace=wrap;html=1;" parent="2Ye4RbttfI9aM-EOrQWo-1" vertex="1">
          <mxGeometry x="440" y="370" width="80" height="30" as="geometry" />
        </mxCell>
        <mxCell id="2Ye4RbttfI9aM-EOrQWo-26" value="4 NUSTART" style="rounded=0;whiteSpace=wrap;html=1;" parent="2Ye4RbttfI9aM-EOrQWo-1" vertex="1">
          <mxGeometry x="540" y="370" width="80" height="30" as="geometry" />
        </mxCell>
        <mxCell id="2Ye4RbttfI9aM-EOrQWo-27" value="5 STATT" style="rounded=0;whiteSpace=wrap;html=1;" parent="2Ye4RbttfI9aM-EOrQWo-1" vertex="1">
          <mxGeometry x="640" y="370" width="80" height="30" as="geometry" />
        </mxCell>
        <mxCell id="2Ye4RbttfI9aM-EOrQWo-28" value="6 CLHNS" style="rounded=0;whiteSpace=wrap;html=1;" parent="2Ye4RbttfI9aM-EOrQWo-1" vertex="1">
          <mxGeometry x="740" y="370" width="80" height="30" as="geometry" />
        </mxCell>
        <mxCell id="2Ye4RbttfI9aM-EOrQWo-29" value="1 DIVIDS" style="rounded=0;whiteSpace=wrap;html=1;" parent="2Ye4RbttfI9aM-EOrQWo-1" vertex="1">
          <mxGeometry x="240" y="450" width="80" height="30" as="geometry" />
        </mxCell>
        <mxCell id="2Ye4RbttfI9aM-EOrQWo-30" value="2 SAM" style="rounded=0;whiteSpace=wrap;html=1;" parent="2Ye4RbttfI9aM-EOrQWo-1" vertex="1">
          <mxGeometry x="340" y="450" width="80" height="30" as="geometry" />
        </mxCell>
        <mxCell id="2Ye4RbttfI9aM-EOrQWo-31" value="3 CICADA" style="rounded=0;whiteSpace=wrap;html=1;" parent="2Ye4RbttfI9aM-EOrQWo-1" vertex="1">
          <mxGeometry x="440" y="450" width="80" height="30" as="geometry" />
        </mxCell>
        <mxCell id="2Ye4RbttfI9aM-EOrQWo-32" value="4 NUSTART" style="rounded=0;whiteSpace=wrap;html=1;" parent="2Ye4RbttfI9aM-EOrQWo-1" vertex="1">
          <mxGeometry x="540" y="450" width="80" height="30" as="geometry" />
        </mxCell>
        <mxCell id="2Ye4RbttfI9aM-EOrQWo-33" value="5 STATT" style="rounded=0;whiteSpace=wrap;html=1;" parent="2Ye4RbttfI9aM-EOrQWo-1" vertex="1">
          <mxGeometry x="640" y="450" width="80" height="30" as="geometry" />
        </mxCell>
        <mxCell id="2Ye4RbttfI9aM-EOrQWo-34" value="6 CLHNS" style="rounded=0;whiteSpace=wrap;html=1;" parent="2Ye4RbttfI9aM-EOrQWo-1" vertex="1">
          <mxGeometry x="740" y="450" width="80" height="30" as="geometry" />
        </mxCell>
        <mxCell id="2Ye4RbttfI9aM-EOrQWo-35" value="1 DIVIDS" style="rounded=0;whiteSpace=wrap;html=1;" parent="2Ye4RbttfI9aM-EOrQWo-1" vertex="1">
          <mxGeometry x="240" y="530" width="80" height="30" as="geometry" />
        </mxCell>
        <mxCell id="2Ye4RbttfI9aM-EOrQWo-36" value="2 SAM" style="rounded=0;whiteSpace=wrap;html=1;" parent="2Ye4RbttfI9aM-EOrQWo-1" vertex="1">
          <mxGeometry x="340" y="530" width="80" height="30" as="geometry" />
        </mxCell>
        <mxCell id="2Ye4RbttfI9aM-EOrQWo-37" value="3 CICADA" style="rounded=0;whiteSpace=wrap;html=1;" parent="2Ye4RbttfI9aM-EOrQWo-1" vertex="1">
          <mxGeometry x="440" y="530" width="80" height="30" as="geometry" />
        </mxCell>
        <mxCell id="2Ye4RbttfI9aM-EOrQWo-38" value="4 NUSTART" style="rounded=0;whiteSpace=wrap;html=1;" parent="2Ye4RbttfI9aM-EOrQWo-1" vertex="1">
          <mxGeometry x="540" y="530" width="80" height="30" as="geometry" />
        </mxCell>
        <mxCell id="2Ye4RbttfI9aM-EOrQWo-39" value="5 STATT" style="rounded=0;whiteSpace=wrap;html=1;" parent="2Ye4RbttfI9aM-EOrQWo-1" vertex="1">
          <mxGeometry x="640" y="530" width="80" height="30" as="geometry" />
        </mxCell>
        <mxCell id="2Ye4RbttfI9aM-EOrQWo-40" value="6 CLHNS" style="rounded=0;whiteSpace=wrap;html=1;" parent="2Ye4RbttfI9aM-EOrQWo-1" vertex="1">
          <mxGeometry x="740" y="530" width="80" height="30" as="geometry" />
        </mxCell>
        <mxCell id="2Ye4RbttfI9aM-EOrQWo-41" style="edgeStyle=orthogonalEdgeStyle;rounded=0;orthogonalLoop=1;jettySize=auto;html=1;" parent="2Ye4RbttfI9aM-EOrQWo-1" edge="1">
          <mxGeometry relative="1" as="geometry">
            <mxPoint x="1070" y="589" as="targetPoint" />
            <mxPoint x="10" y="589" as="sourcePoint" />
          </mxGeometry>
        </mxCell>
        <mxCell id="2Ye4RbttfI9aM-EOrQWo-42" value="7 ALL COHORT" style="rounded=0;whiteSpace=wrap;html=1;" parent="2Ye4RbttfI9aM-EOrQWo-1" vertex="1">
          <mxGeometry x="840" y="450" width="80" height="30" as="geometry" />
        </mxCell>
        <mxCell id="2Ye4RbttfI9aM-EOrQWo-43" value="LEVEL 1" style="text;html=1;strokeColor=none;fillColor=none;align=center;verticalAlign=middle;whiteSpace=wrap;rounded=0;" parent="2Ye4RbttfI9aM-EOrQWo-1" vertex="1">
          <mxGeometry x="20" y="50" width="50" height="20" as="geometry" />
        </mxCell>
        <mxCell id="2Ye4RbttfI9aM-EOrQWo-44" value="LEVEL 2" style="text;html=1;strokeColor=none;fillColor=none;align=center;verticalAlign=middle;whiteSpace=wrap;rounded=0;" parent="2Ye4RbttfI9aM-EOrQWo-1" vertex="1">
          <mxGeometry x="100" y="50" width="90" height="20" as="geometry" />
        </mxCell>
        <mxCell id="2Ye4RbttfI9aM-EOrQWo-45" value="LEVEL 3" style="text;html=1;strokeColor=none;fillColor=none;align=center;verticalAlign=middle;whiteSpace=wrap;rounded=0;" parent="2Ye4RbttfI9aM-EOrQWo-1" vertex="1">
          <mxGeometry x="430" y="50" width="90" height="20" as="geometry" />
        </mxCell>
      </root>
    </mxGraphModel>
  </diagram>
</mxfile>
